<svg width="64" height="64" viewBox="0 0 64 64" fill="none" xmlns="http://www.w3.org/2000/svg">
  <circle cx="32" cy="32" r="32" fill="#FFD25A"/>
  <path d="M26.5 21.373L32.7744 15.0986L34.8955 17.2207L28.6162 23.5H50V26.5H28.6182L34.8965 32.7783L32.7754 34.9004L26.5 28.625V50H23.5V28.6279L17.2266 34.9014L15.1055 32.7793L21.3848 26.5H0V23.5H21.3828L15.1045 17.2217L17.2256 15.0996L23.5 21.374V0H26.5V21.373ZM21.5967 37.1299L16.8105 48.6777L14.0391 47.5293L18.8252 35.9814L21.5967 37.1299ZM33.6602 41.9805L34.7998 44.75L35.9502 47.5195L33.1797 48.6699L28.4004 37.1201L31.1699 35.9697L33.6602 41.9805ZM15.1045 37.0234L8.3877 43.7412L6.26562 41.6201L12.9834 34.9023L15.1045 37.0234ZM43.7383 41.6191L41.6162 43.7402L32.7773 34.9014L34.8994 32.7803L43.7383 41.6191ZM14.0283 31.1758L2.47949 35.959L1.33203 33.1875L12.8799 28.4043L14.0283 31.1758ZM48.6768 33.1797L47.5293 35.9512L42.0322 33.6748L43.1797 30.9023L48.6768 33.1797ZM40.4092 29.7568L39.2607 32.5283L35.9805 31.1689L37.1289 28.3975L40.4092 29.7568ZM14.0312 18.8369L12.8828 21.6084L7.33984 19.3115L8.48828 16.54L14.0312 18.8369ZM48.6699 16.8203L39.8896 20.4502L37.1201 21.5996L35.9697 18.8301L47.5195 14.0498L48.6699 16.8203ZM5.71191 15.3867L4.56348 18.1572L1.33008 16.8174L2.47852 14.0459L5.71191 15.3867ZM17.2227 15.0986L15.1016 17.2197L6.2627 8.38086L8.38379 6.25977L17.2227 15.0986ZM39.4941 12.6182L34.8975 17.2148L32.7764 15.0928L37.373 10.4971L39.4941 12.6182ZM20.4502 10.1104L21.5996 12.8799L18.8301 14.0303L14.0498 2.48047L16.8203 1.33008L20.4502 10.1104ZM35.9502 2.48047L32.3203 11.25L31.1699 14.0303L28.4004 12.8799L33.1797 1.33008L35.9502 2.48047ZM43.7363 8.37598L41.6152 10.4971L39.4941 8.37598L41.6152 6.25488L43.7363 8.37598Z" fill="#222227" transform="translate(7 7)"/>
</svg>
