<svg width="27" height="30" viewBox="0 0 27 30" fill="none" xmlns="http://www.w3.org/2000/svg">
<path d="M11.4219 9.55273L12.9814 17.2178L20.7705 18.752V20.8008L12.9814 22.3271L11.4219 30H9.34863L7.78906 22.3271L0 20.8008V18.752L7.78906 17.2178L9.34863 9.55273H11.4219ZM22.3301 6.49121L27 7.40723V8.63672L22.3301 9.55273L21.3994 14.1562H20.1504L19.2109 9.55273L14.541 8.63672V7.40723L19.2109 6.49121L20.1504 1.8877H21.3994L22.3301 6.49121ZM4.86621 2.87598L7.78906 3.44629V4.21777L4.86621 4.78809L4.28613 7.66504H3.50293L2.92285 4.78809L0 4.21777V3.44629L2.92285 2.87598L3.50293 0H4.28613L4.86621 2.87598Z" fill="#EDFF87"/>
</svg>
