<svg preserveAspectRatio="xMinYMin meet" width="364.26" height="110" overflow="visible" style="display: block;" viewBox="0 0 364.26 110" fill="none" xmlns="http://www.w3.org/2000/svg">
<g id="&#229;&#141;&#176;&#232;&#138;&#177;logo" clip-path="url(#clip0_0_12)">
<path id="Union" d="M52.9297 71.6904C54.8997 71.6904 56.83 72.0199 58.75 72.6699C60.6599 73.3199 62.4003 74.3704 63.9502 75.8203C65.51 77.2703 66.7498 79.1702 67.6797 81.54C68.6097 83.9 69.0693 86.7998 69.0693 90.2197V92.71H42.3047C42.3875 95.1104 42.8526 97.1767 43.71 98.9004C44.6599 100.81 45.9903 102.26 47.7002 103.24C49.41 104.22 51.3998 104.71 53.6494 104.71C55.1094 104.71 56.4299 104.5 57.6299 104.08C58.8199 103.66 59.85 103.03 60.71 102.17C61.5699 101.32 62.2302 100.26 62.7002 99L68.4697 100.59C67.8997 102.45 66.9198 104.08 65.5498 105.49C64.1799 106.9 62.4798 108.01 60.46 108.8C58.4401 109.6 56.16 109.99 53.6201 109.99V110C50.0401 110 46.9494 109.2 44.3594 107.61C41.7694 106.02 39.7594 103.8 38.3594 100.95C36.9594 98.1002 36.2598 94.7797 36.2598 90.9697C36.2598 87.1598 36.9396 83.8196 38.3096 80.9297C39.6796 78.0397 41.6199 75.7696 44.1299 74.1396C46.6398 72.4998 49.5698 71.6904 52.9297 71.6904ZM216.12 71.6904C218.09 71.6904 220.02 72.0199 221.94 72.6699C223.85 73.3199 225.591 74.3704 227.141 75.8203C228.7 77.2703 229.94 79.1702 230.87 81.54C231.8 83.9 232.26 86.7998 232.26 90.2197V92.71H205.495C205.578 95.1104 206.043 97.1767 206.9 98.9004C207.85 100.81 209.181 102.26 210.891 103.24C212.6 104.22 214.59 104.71 216.84 104.71C218.3 104.71 219.62 104.5 220.82 104.08C222.01 103.66 223.04 103.03 223.9 102.17C224.76 101.32 225.421 100.26 225.891 99L231.66 100.59C231.09 102.45 230.11 104.08 228.74 105.49C227.37 106.9 225.67 108.01 223.65 108.8C221.63 109.6 219.35 109.99 216.811 109.99V110C213.231 110 210.14 109.2 207.55 107.61C204.96 106.02 202.95 103.8 201.55 100.95C200.15 98.1002 199.45 94.7797 199.45 90.9697C199.45 87.1598 200.13 83.8196 201.5 80.9297C202.87 78.0397 204.81 75.7696 207.32 74.1396C209.83 72.4998 212.76 71.6904 216.12 71.6904ZM129.05 77.25H121.42V99.5898C121.42 101.25 121.76 102.46 122.43 103.22C123.1 103.98 124.22 104.36 125.79 104.36C126.17 104.36 126.65 104.319 127.229 104.229C127.819 104.139 128.35 104.05 128.84 103.97L130.069 109.01C129.449 109.23 128.75 109.4 127.96 109.51C127.18 109.62 126.4 109.68 125.62 109.68C122.42 109.68 119.92 108.84 118.13 107.14C116.34 105.45 115.449 103.09 115.449 100.06V77.25H109.89V72.1504H129.05V77.25ZM166.33 109.189H160.56V102.28C159.493 104.669 158.132 106.42 156.47 107.53C154.36 108.94 151.949 109.649 149.229 109.649V109.67C146.73 109.67 144.54 109.16 142.65 108.13C140.76 107.1 139.29 105.55 138.24 103.47C137.19 101.39 136.67 98.7997 136.67 95.6797V72.1494H142.63V95.1797C142.63 98.0297 143.38 100.26 144.88 101.87C146.38 103.48 148.43 104.29 151.01 104.29C152.78 104.29 154.36 103.9 155.77 103.13C157.17 102.36 158.28 101.219 159.1 99.7295C159.92 98.2395 160.33 96.4398 160.33 94.3398V72.1396H166.33V109.189ZM192.59 71.6201C193.03 71.6201 193.559 71.6304 194.159 71.6504C194.769 71.6704 195.25 71.6897 195.6 71.7197V77.7197C195.42 77.6797 194.979 77.6105 194.27 77.5205C193.56 77.4305 192.81 77.3896 192.02 77.3896C190.25 77.3897 188.67 77.7601 187.26 78.5C185.86 79.2399 184.76 80.26 183.96 81.5498C183.16 82.8397 182.77 84.3299 182.77 86.0098V109.21H176.81V72.1504H182.579V77.8506H182.979C183.659 75.9706 184.88 74.4601 186.64 73.3301C188.4 72.1901 190.38 71.6201 192.59 71.6201ZM39.8398 65.3896H24.3594V109.2H18.0596V65.3896H2.51953V59.8203H39.8398V65.3896ZM85.3496 79.3301C86.5396 81.1901 87.5802 82.9203 88.4502 84.5303C88.8229 85.2199 89.2022 85.8998 89.5859 86.5703C89.9524 85.8996 90.3054 85.2201 90.6396 84.5303C91.4196 82.9203 92.4197 81.18 93.6396 79.3301L98.3496 72.1396H105.18L92.7979 90.4844L105.77 109.189H98.8398L93.3994 100.87C92.2295 99.0603 91.2201 97.3702 90.3701 95.8203C90.029 95.1942 89.6802 94.5804 89.3301 93.9756C88.9988 94.58 88.6789 95.1947 88.3701 95.8203C87.6001 97.3803 86.6099 99.0602 85.4199 100.87L79.9199 109.189H73.0293L73.0098 109.2L86.0537 90.1865L73.7793 72.1396H80.7402L85.3496 79.3301ZM216.12 77C213.89 77 211.981 77.5499 210.391 78.6396C208.801 79.7296 207.58 81.1599 206.74 82.9199C206.027 84.4146 205.617 85.996 205.51 87.6699H226.181C226.033 85.9832 225.68 84.4431 225.12 83.0498C224.36 81.1599 223.22 79.6803 221.72 78.6104C220.22 77.5404 218.35 77 216.12 77ZM52.9297 77C50.6999 77 48.7901 77.5499 47.2002 78.6396C45.6102 79.7296 44.3898 81.1599 43.5498 82.9199C42.8364 84.4146 42.4269 85.996 42.3193 87.6699H62.9902C62.843 85.9832 62.4899 84.4431 61.9297 83.0498C61.1697 81.1599 60.0293 79.6803 58.5293 78.6104C57.0293 77.5404 55.1596 77 52.9297 77ZM132.67 13.4902C135.76 13.4902 138.49 14.2597 140.84 15.8096C143.19 17.3596 145.04 19.5599 146.37 22.4199C147.71 25.2799 148.37 28.6701 148.37 32.5801C148.37 36.49 147.71 39.9201 146.38 42.79C145.05 45.6599 143.21 47.8802 140.86 49.4502C138.51 51.0201 135.78 51.7997 132.69 51.7998C130.35 51.7998 128.46 51.3998 127.02 50.5898C125.58 49.7799 124.48 48.8697 123.71 47.8398C122.94 46.8099 122.34 45.9595 121.92 45.2695H121.46V63.3398H115.5V13.9502H121.27V19.8799H121.93C122.35 19.2199 122.93 18.3799 123.69 17.3799C124.44 16.37 125.521 15.4696 126.94 14.6797C128.35 13.8799 130.26 13.4902 132.67 13.4902ZM91.1396 13.4805C92.3796 13.4805 93.7901 13.6297 95.3701 13.9297C96.95 14.2297 98.4696 14.8203 99.9395 15.7002C101.409 16.5802 102.62 17.8899 103.59 19.6299C104.55 21.3599 105.03 23.6803 105.03 26.5703V51H99.1602V45.96H98.7598C98.3398 46.8199 97.6701 47.71 96.7402 48.6299C95.8103 49.5499 94.6098 50.3197 93.1299 50.9297C91.6499 51.5497 89.8598 51.8604 87.7598 51.8604V51.8701C85.4198 51.8701 83.2898 51.43 81.3799 50.54C79.47 49.6601 77.9503 48.36 76.8203 46.6602C75.6903 44.9602 75.1299 42.89 75.1299 40.46C75.1299 38.34 75.5497 36.62 76.3896 35.29C77.2296 33.96 78.35 32.9202 79.75 32.1602C81.15 31.4002 82.7002 30.8302 84.4102 30.4502C86.1101 30.0702 87.8199 29.7796 89.5498 29.5596C91.7598 29.2696 93.5602 29.0504 94.9502 28.9004C96.3401 28.7504 97.3698 28.4796 98.0498 28.0996C98.7197 27.7196 99.0596 27.0796 99.0596 26.1797V25.9805C99.0596 24.4305 98.7702 23.1198 98.2002 22.0498C97.6303 20.9799 96.7601 20.1601 95.6104 19.5801C94.4604 19.0001 93.0298 18.7197 91.2998 18.7197C89.5698 18.7197 88.0197 18.9998 86.7598 19.5498C85.4998 20.0998 84.4794 20.7901 83.6895 21.6201C82.9096 22.45 82.3099 23.2903 81.9199 24.1602L76.1895 22.2695C77.1394 20.0196 78.4203 18.2504 80.0303 16.9805C81.6403 15.7105 83.4201 14.8103 85.3701 14.2803C87.31 13.7503 89.2398 13.4805 91.1396 13.4805ZM228.71 13.4902C230.5 13.4903 232.189 13.7205 233.779 14.1904C235.369 14.6504 236.82 15.3204 238.14 16.1904C239.45 17.0604 240.59 18.1302 241.54 19.4102C242.49 20.6901 243.22 22.1206 243.729 23.7305L238 25.3496C237.73 24.3998 237.329 23.5303 236.77 22.7305C236.22 21.9305 235.55 21.2401 234.76 20.6602C233.98 20.0702 233.08 19.6198 232.06 19.2998C231.04 18.9799 229.93 18.8203 228.71 18.8203C226.24 18.8203 224.199 19.4698 222.609 20.7598C221.019 22.0497 219.84 23.7498 219.06 25.8496C218.29 27.9496 217.899 30.24 217.899 32.71C217.899 35.18 218.29 37.4002 219.06 39.4902C219.83 41.5801 221.009 43.2601 222.609 44.54C224.209 45.82 226.23 46.46 228.71 46.46C229.95 46.4599 231.079 46.2898 232.119 45.96C233.159 45.63 234.08 45.1598 234.89 44.5498C235.7 43.9398 236.38 43.2198 236.93 42.3799C237.48 41.5399 237.889 40.6198 238.159 39.6299L243.859 41.25C243.369 42.91 242.649 44.3799 241.689 45.6699C240.729 46.9599 239.59 48.0705 238.26 48.9805C236.93 49.9004 235.46 50.5903 233.85 51.0703C232.24 51.5403 230.53 51.7802 228.71 51.7803V51.7998C225.35 51.7998 222.41 51 219.88 49.4102C217.35 47.8202 215.38 45.5897 213.97 42.7197C212.56 39.8498 211.85 36.5099 211.85 32.71C211.85 28.91 212.56 25.4698 213.97 22.5898C215.38 19.7099 217.36 17.4699 219.88 15.8799C222.41 14.29 225.35 13.4902 228.71 13.4902ZM21.7002 0.959961C24.3101 0.95998 26.7399 1.35017 29.0098 2.12012C31.2697 2.89008 33.2999 3.99978 35.0898 5.42969C36.8798 6.85964 38.3698 8.56989 39.5498 10.5498C40.7298 12.5297 41.5402 14.7097 41.9902 17.0996H35.4902C34.9802 15.5097 34.3097 14.08 33.4697 12.8301C32.6297 11.5801 31.6297 10.4901 30.4697 9.58008C29.3098 8.67012 28 7.97975 26.54 7.50977C25.0802 7.03981 23.4803 6.79985 21.7305 6.7998C18.8305 6.7998 16.2098 7.55004 13.8398 9.04004C11.48 10.53 9.59992 12.7298 8.20996 15.6396C6.81996 18.5496 6.12012 22.1204 6.12012 26.3604C6.12016 30.6001 6.81979 34.1001 8.21973 37C9.61973 39.89 11.5304 42.0896 13.9404 43.5996C16.3504 45.0995 19.07 45.8496 22.0898 45.8496C24.8698 45.8496 27.3302 45.2601 29.4502 44.0801C31.5701 42.9001 33.2204 41.22 34.4004 39.04C35.5323 36.9488 36.119 34.5076 36.165 31.6904H23.3799V26.1904H42.3398V31.5898C42.3398 35.6797 41.4696 39.2195 39.7197 42.2295C37.9697 45.2295 35.58 47.56 32.54 49.21C29.5001 50.8599 26.02 51.6797 22.0801 51.6797L22.0996 51.6699C17.6998 51.6699 13.8501 50.6397 10.5303 48.5898C7.2203 46.5399 4.62953 43.6103 2.76953 39.8203C0.909531 36.0303 0 31.5396 0 26.3496C4.21519e-05 21.1598 0.930315 16.5995 2.78027 12.8096C4.64021 9.01987 7.19996 6.09995 10.4697 4.04004C13.7397 1.99004 17.4802 0.959961 21.7002 0.959961ZM67.6104 13.4199C68.0502 13.4199 68.58 13.4302 69.1797 13.4502C69.7897 13.4702 70.2701 13.4895 70.6201 13.5195V19.5195C70.4401 19.4795 70 19.4103 69.29 19.3203C68.58 19.2303 67.83 19.1895 67.04 19.1895C65.2701 19.1895 63.6902 19.5599 62.2803 20.2998C60.8804 21.0397 59.7804 22.0598 58.9805 23.3496C58.1805 24.6395 57.7901 26.1297 57.79 27.8096V51.0098H51.8301V13.9502H57.5996V19.6504H58C58.68 17.7704 59.9002 16.2599 61.6602 15.1299C63.4201 13.9899 65.4004 13.4199 67.6104 13.4199ZM163.02 20.3574C164.029 18.261 165.289 16.6875 166.81 15.6396C168.899 14.1998 171.34 13.4903 174.149 13.4902C176.649 13.4902 178.839 14.0003 180.729 15.0303C182.619 16.0603 184.09 17.6 185.14 19.6699C186.19 21.7398 186.71 24.3399 186.71 27.4697V51H180.71V27.9697C180.71 25.12 179.96 22.8902 178.47 21.2803C176.98 19.6703 174.94 18.8604 172.35 18.8604C170.58 18.8604 168.989 19.2505 167.579 20.0205C166.169 20.7905 165.049 21.9206 164.229 23.4004C163.41 24.8803 163 26.6801 163 28.7998H163.02V51H157.06V1.62012H163.02V20.3574ZM203.149 51H197.189V13.9502H203.149V51ZM99.0498 32.4902C98.8097 32.7801 98.2797 33.0396 97.46 33.2695C96.64 33.4995 95.71 33.7099 94.6602 33.8799C93.6103 34.0599 92.5902 34.2101 91.6104 34.3301C90.6304 34.4501 89.8495 34.5504 89.2695 34.6104C87.8299 34.7903 86.49 35.0897 85.2402 35.5195C83.9903 35.9495 82.9902 36.5802 82.2402 37.4102C81.4903 38.2401 81.1104 39.3597 81.1104 40.7695C81.1104 42.0495 81.4404 43.1202 82.1104 43.9902C82.7703 44.85 83.6802 45.5003 84.8301 45.9502C85.9799 46.3901 87.2898 46.6103 88.7695 46.6104L88.7803 46.5996C90.9901 46.5996 92.86 46.1695 94.3799 45.3096C95.8998 44.4496 97.0604 43.3301 97.8604 41.9502C98.6603 40.5702 99.0498 39.1299 99.0498 37.6299V32.4902ZM131.8 18.8301C129.46 18.8301 127.61 19.4 126.07 20.5498C124.52 21.6998 123.36 23.3 122.57 25.3398C121.79 27.3797 121.39 29.7797 121.39 32.5195C121.39 35.2595 121.79 37.6803 122.58 39.7803C123.37 41.8801 124.55 43.5202 126.11 44.7002C127.67 45.88 129.56 46.4697 131.79 46.4697L131.8 46.46C134.12 46.46 136.06 45.8398 137.62 44.5898C139.18 43.3399 140.35 41.6597 141.13 39.5498C141.91 37.4398 142.31 35.0897 142.31 32.5098C142.31 29.93 141.92 27.6301 141.15 25.5703C140.38 23.5005 139.21 21.8604 137.65 20.6504C136.09 19.4404 134.14 18.8301 131.8 18.8301ZM200.2 0.00976562C201.33 0.00985455 202.33 0.390489 203.149 1.15039C203.969 1.91039 204.38 2.8502 204.38 3.9502C204.38 5.05011 203.969 5.96051 203.149 6.73047C202.33 7.50011 201.35 7.88956 200.2 7.88965C199.07 7.88965 198.1 7.50017 197.28 6.73047C196.46 5.96051 196.05 5.03012 196.05 3.9502C196.05 2.8702 196.46 1.91039 197.28 1.15039C198.1 0.390431 199.07 0.00976562 200.2 0.00976562Z" fill="var(--fill-0, #0D0D11)"/>
<g id="Group">
<path id="Vector" d="M264.94 103.55V75.41C267.09 75.06 269.53 74.47 272.26 73.65C275.26 72.71 277.61 71.89 279.32 71.18L280.25 73.47C278.19 74.35 276.03 75.13 273.77 75.81C271.3 76.58 269.2 77.13 267.46 77.49V102.86L278.96 98.79L279.69 101.22L264.12 106.99L263.3 104.36L264.95 103.57L264.94 103.55ZM266.22 86.47H279.81V89.03H266.22V86.47ZM298.38 100.15C298.38 101.15 298.28 101.94 298.07 102.51C297.86 103.08 297.51 103.51 297.01 103.79C296.51 104.07 295.79 104.27 294.85 104.39C292.56 104.57 290.57 104.63 288.89 104.57L288.4 101.83C290.08 101.95 294.72 101.82 295.06 101.74C295.68 101.6 295.85 101.25 295.85 99.27V76.86H284.82V110H282.35V74.34H298.36V100.15H298.38Z" fill="var(--fill-0, #0D0D11)"/>
<path id="Vector_2" d="M323.64 96.3C326.2 94.7 328.7 92.79 331.13 90.57C332.38 89.45 333.55 88.32 334.66 87.17C335.76 86.03 336.9 84.72 338.06 83.26L340.12 84.75C337.81 87.62 335.23 90.32 332.38 92.85C330.08 94.97 327.65 96.85 325.08 98.48L323.64 96.29V96.3ZM326.19 75.42H364.26V77.76H326.19V75.42ZM333.11 89.35L335.58 86.97V110H333.11V89.35ZM336.95 99.93C341.6 97.84 346.11 95.39 350.49 92.56C354.87 89.74 358.49 87.02 361.34 84.4L362.93 86.3C359.87 89.12 356.06 91.99 351.5 94.9C346.91 97.84 342.44 100.3 338.09 102.27L336.94 99.93H336.95ZM336.12 71.13H338.5V81.46H336.12V71.13ZM346.35 83.12L348.82 82.99V103.86C348.82 104.74 348.9 105.4 349.06 105.85C349.22 106.29 349.51 106.61 349.92 106.8C350.33 106.99 350.96 107.12 351.82 107.17C352.91 107.23 354.28 107.23 355.92 107.17C357.33 107.14 358.36 107.05 359.01 106.91C359.66 106.76 360.12 106.48 360.4 106.05C360.68 105.62 360.88 104.91 361 103.91C361.18 102.06 361.28 100.76 361.31 100.03L363.78 100.65C363.69 102.09 363.56 103.43 363.38 104.66C363.2 106.13 362.91 107.19 362.5 107.84C362.09 108.49 361.42 108.94 360.49 109.21C359.56 109.48 358.12 109.62 356.14 109.65C355.4 109.68 354.62 109.69 353.78 109.69C352.94 109.69 352.17 109.68 351.46 109.65C349.99 109.56 348.9 109.37 348.2 109.08C347.49 108.79 347.01 108.3 346.74 107.62C346.48 106.94 346.34 105.93 346.34 104.58V83.14L346.35 83.12ZM351.54 71.09H353.97V81.51H351.54V71.09Z" fill="var(--fill-0, #0D0D11)"/>
<path id="Vector_3" d="M315.49 79.43H312.71V101.66H315.49V79.43Z" fill="var(--fill-0, #0D0D11)"/>
</g>
</g>
<defs>
<clipPath id="clip0_0_12">
<rect width="364.26" height="110" fill="white"/>
</clipPath>
</defs>
</svg>
