<svg preserveAspectRatio="none" width="100%" height="100%" overflow="visible" style="display: block;" viewBox="0 0 271 28" fill="none" xmlns="http://www.w3.org/2000/svg">
<g id="uuid-da9d13fd-ed88-4700-bd20-55d15c4a1439" clip-path="url(#clip0_0_14)">
<path id="Vector" d="M10.3482 14.0081H15.9956C15.9741 15.2498 15.7213 16.3302 15.2211 17.2548C14.6994 18.2169 13.9679 18.9587 13.0321 19.4801C12.0962 20.0015 11.0097 20.2649 9.77807 20.2649C8.43883 20.2649 7.23943 19.9317 6.17449 19.2705C5.10955 18.604 4.26513 17.6364 3.64661 16.3571C3.02808 15.0778 2.71613 13.5082 2.71613 11.6537C2.71613 9.79919 3.0227 8.19735 3.64123 6.91265C4.25975 5.62795 5.08804 4.65502 6.13146 3.99923C7.17489 3.33807 8.34202 3.01017 9.6221 3.01017C10.3966 3.01017 11.1012 3.11768 11.7466 3.32732C12.392 3.53696 12.9729 3.84335 13.4838 4.24112C13.9948 4.63889 14.4412 5.12267 14.8123 5.67633C15.1834 6.22999 15.4793 6.86427 15.7052 7.56844H18.5773C18.3836 6.51488 18.0233 5.54732 17.5016 4.67652C16.9799 3.80035 16.3237 3.0478 15.5277 2.41351C14.7317 1.77923 13.8388 1.29007 12.8384 0.946055C11.838 0.602035 10.757 0.4354 9.60596 0.4354C7.73963 0.4354 6.08306 0.892302 4.63625 1.79535C3.18944 2.70378 2.05458 3.99386 1.23705 5.67095C0.414143 7.34805 0.00537848 9.34229 0.00537848 11.6537C0.00537848 13.9651 0.414143 15.9324 1.23705 17.6095C2.05996 19.2866 3.20019 20.5767 4.66852 21.4851C6.13684 22.3935 7.84182 22.8451 9.78345 22.8451C11.5207 22.8451 13.0643 22.4796 14.4089 21.7539C15.7536 21.0282 16.8131 19.9962 17.5822 18.6685C18.3514 17.3408 18.7386 15.7712 18.7386 13.9651V11.5784H10.3536V14.0081H10.3482Z" fill="var(--fill-0, white)"/>
<path id="Vector_2" d="M29.9043 5.93434C28.9255 5.93434 28.0488 6.18698 27.2743 6.68689C26.4944 7.19217 25.9565 7.85871 25.6553 8.6865H25.4779V6.16548H22.9285V22.5441H25.5693V12.288C25.5693 11.5462 25.7468 10.8904 26.0964 10.3152C26.446 9.74007 26.9354 9.29391 27.5539 8.96602C28.1725 8.63813 28.877 8.47687 29.6569 8.47687C30.0065 8.47687 30.34 8.49837 30.6519 8.536C30.9639 8.57362 31.1575 8.60587 31.2382 8.622V5.97197C31.0822 5.96122 30.8671 5.95047 30.5982 5.9451C30.3292 5.93434 30.098 5.92897 29.9043 5.92897V5.93434Z" fill="var(--fill-0, white)"/>
<path id="Vector_3" d="M44.2057 6.9449C43.5549 6.55251 42.8826 6.29449 42.1834 6.16011C41.4842 6.02572 40.8603 5.96122 40.3171 5.96122C39.478 5.96122 38.6282 6.07948 37.7677 6.31062C36.9071 6.54713 36.1219 6.9449 35.4065 7.50394C34.6912 8.06297 34.1264 8.84239 33.7069 9.8422L36.2402 10.6754C36.4177 10.2937 36.6758 9.92283 37.0254 9.5573C37.3697 9.19178 37.8268 8.88539 38.3808 8.6435C38.9402 8.40161 39.6071 8.27798 40.387 8.27798C41.1669 8.27798 41.7854 8.40699 42.291 8.65963C42.7966 8.91227 43.1784 9.27779 43.4366 9.75082C43.6894 10.2238 43.8185 10.8044 43.8185 11.487V11.573C43.8185 11.9762 43.6679 12.2557 43.3721 12.4223C43.0762 12.589 42.6191 12.7072 42.0005 12.7717C41.382 12.8362 40.586 12.9384 39.6125 13.062C38.8488 13.1588 38.0904 13.2931 37.3428 13.4598C36.5898 13.6264 35.9013 13.8791 35.2828 14.2123C34.6643 14.551 34.1641 15.0132 33.793 15.5992C33.4219 16.1851 33.2336 16.9484 33.2336 17.8837C33.2336 18.9587 33.481 19.8725 33.9812 20.6251C34.4814 21.3776 35.1537 21.9474 35.9982 22.3398C36.8426 22.7322 37.7838 22.9257 38.8219 22.9257C39.7523 22.9257 40.543 22.7913 41.1991 22.5172C41.8553 22.243 42.3878 21.9044 42.7966 21.5012C43.2053 21.0981 43.5065 20.7003 43.6894 20.3241H43.8669V22.5494H46.4593V11.7504C46.4593 10.4711 46.2442 9.4498 45.8193 8.68113C45.3944 7.91246 44.8565 7.3373 44.2057 6.9449ZM43.8131 16.6258C43.8131 17.2924 43.6356 17.9267 43.286 18.5395C42.9364 19.1522 42.4201 19.6468 41.7478 20.0284C41.0754 20.4101 40.2472 20.5982 39.2683 20.5982C38.6121 20.5982 38.0312 20.5014 37.5256 20.3079C37.0147 20.1144 36.6167 19.8241 36.3262 19.4425C36.0304 19.0609 35.8852 18.5878 35.8852 18.0234C35.8852 17.3999 36.0519 16.9054 36.3854 16.5345C36.7189 16.1689 37.1599 15.8894 37.7139 15.7013C38.2679 15.5131 38.8595 15.3788 39.4942 15.2981C39.747 15.2713 40.0912 15.2283 40.5268 15.1745C40.9625 15.1208 41.4089 15.0562 41.8768 14.9756C42.3394 14.895 42.7535 14.809 43.1139 14.7069C43.4742 14.6047 43.7109 14.4918 43.8185 14.3628V16.6312L43.8131 16.6258Z" fill="var(--fill-0, white)"/>
<path id="Vector_4" d="M62.2935 6.98791C61.2501 6.30524 60.0507 5.96122 58.6792 5.96122C57.6143 5.96122 56.7698 6.13861 56.1459 6.488C55.522 6.8374 55.0433 7.23517 54.7099 7.68132C54.3764 8.12747 54.1182 8.49299 53.9354 8.78863H53.6449V6.16548H51.0955V27.9946H53.7364V20.0069H53.9408C54.1236 20.3079 54.3872 20.6896 54.7314 21.1411C55.0756 21.598 55.5597 22.0011 56.1997 22.3559C56.8344 22.7107 57.668 22.8935 58.7061 22.8935C60.0722 22.8935 61.277 22.5441 62.3204 21.8506C63.3585 21.1572 64.176 20.1735 64.7623 18.905C65.3485 17.6364 65.6389 16.1313 65.6389 14.3951C65.6389 12.6589 65.3431 11.1699 64.7515 9.9067C64.1599 8.6435 63.3423 7.66519 62.3043 6.98253L62.2935 6.98791ZM62.4226 17.4859C62.073 18.4212 61.5567 19.163 60.8682 19.7113C60.1798 20.2649 59.3192 20.5391 58.2973 20.5391C57.2754 20.5391 56.474 20.2757 55.7856 19.7543C55.0971 19.2329 54.5754 18.5072 54.2258 17.5773C53.8762 16.6473 53.6987 15.5777 53.6987 14.3682C53.6987 13.1588 53.8708 12.0998 54.2204 11.1968C54.5647 10.2937 55.081 9.58956 55.7694 9.0789C56.4525 8.57362 57.2969 8.31561 58.3027 8.31561C59.3085 8.31561 60.2013 8.58437 60.8898 9.1219C61.5782 9.65943 62.0945 10.3851 62.4388 11.2989C62.783 12.2127 62.9497 13.234 62.9497 14.3682C62.9497 15.5024 62.7776 16.5506 62.428 17.4805L62.4226 17.4859Z" fill="var(--fill-0, white)"/>
<path id="Vector_5" d="M79.9403 6.64389C79.1067 6.19236 78.1332 5.96122 77.0306 5.96122C75.7881 5.96122 74.7071 6.27836 73.782 6.91265C73.1097 7.37493 72.5503 8.07372 72.1039 9.00365V0.720292H69.463V22.5494H72.1039V12.7341C72.1039 11.7988 72.2868 10.9979 72.6471 10.3475C73.0075 9.69169 73.5023 9.19716 74.1262 8.85314C74.7501 8.50912 75.4547 8.34248 76.2346 8.34248C77.3802 8.34248 78.2784 8.69725 78.9399 9.41217C79.6015 10.1271 79.9296 11.1108 79.9296 12.374V22.5548H82.5812V12.1536C82.5812 10.7668 82.3499 9.61643 81.8873 8.70263C81.4248 7.78883 80.774 7.10616 79.9403 6.64926V6.64389Z" fill="var(--fill-0, white)"/>
<path id="Vector_6" d="M89.8636 6.16548H87.2228V22.5441H89.8636V6.16548Z" fill="var(--fill-0, white)"/>
<path id="Vector_7" d="M88.5566 0C88.0564 0 87.6262 0.166635 87.2658 0.505279C86.9055 0.843924 86.7226 1.25782 86.7226 1.7416C86.7226 2.22538 86.9055 2.62853 87.2658 2.97255C87.6262 3.31657 88.0564 3.4832 88.5566 3.4832C89.0568 3.4832 89.4979 3.31119 89.8636 2.97255C90.2294 2.6339 90.4068 2.22 90.4068 1.7416C90.4068 1.2632 90.224 0.838549 89.8636 0.505279C89.5033 0.17201 89.0676 0 88.5566 0Z" fill="var(--fill-0, white)"/>
<path id="Vector_8" d="M104.794 18.7383C104.547 19.1092 104.251 19.4318 103.891 19.7005C103.536 19.9693 103.127 20.1789 102.664 20.3241C102.207 20.4692 101.702 20.5444 101.153 20.5444C100.056 20.5444 99.1576 20.2596 98.4584 19.6951C97.7592 19.1307 97.2321 18.3836 96.8879 17.459C96.5437 16.5345 96.377 15.54 96.377 14.465C96.377 13.3899 96.5491 12.3578 96.8879 11.4333C97.2321 10.5034 97.7538 9.75619 98.4584 9.18641C99.163 8.61663 100.061 8.33173 101.153 8.33173C101.691 8.33173 102.186 8.40161 102.632 8.54675C103.084 8.6865 103.482 8.89077 103.826 9.14878C104.176 9.4068 104.472 9.71319 104.714 10.0626C104.956 10.412 105.138 10.799 105.257 11.2183L107.79 10.498C107.564 9.78307 107.241 9.14878 106.822 8.58437C106.402 8.01997 105.902 7.54694 105.321 7.16529C104.74 6.77827 104.095 6.48263 103.396 6.27836C102.691 6.0741 101.944 5.97197 101.153 5.97197C99.6686 5.97197 98.367 6.32137 97.2483 7.02553C96.1295 7.7297 95.2582 8.71876 94.6343 9.99271C94.0104 11.2667 93.6985 12.761 93.6985 14.4703C93.6985 16.1797 94.0104 17.6256 94.6343 18.8942C95.2582 20.1628 96.1295 21.1519 97.2483 21.856C98.367 22.5602 99.6686 22.9096 101.153 22.9096C101.954 22.9096 102.713 22.8021 103.423 22.5924C104.138 22.3828 104.789 22.0764 105.37 21.6679C105.956 21.2647 106.462 20.7756 106.886 20.2004C107.311 19.6306 107.634 18.9749 107.849 18.2438L105.327 17.5235C105.208 17.9643 105.031 18.3674 104.784 18.7383H104.794Z" fill="var(--fill-0, white)"/>
<path id="Vector_9" d="M129.853 1.08581H113.351V3.54771H120.225V22.915H123.011V3.54771H129.853V1.08581Z" fill="var(--fill-0, white)"/>
<path id="Vector_10" d="M140.518 8.15435C139.83 7.51469 139.061 7.05241 138.216 6.76214C137.372 6.47188 136.511 6.33212 135.645 6.33212C134.161 6.33212 132.865 6.69226 131.751 7.41793C130.643 8.13822 129.783 9.1434 129.18 10.4227C128.573 11.7021 128.271 13.1803 128.271 14.8627C128.271 16.5452 128.583 18.0127 129.202 19.2705C129.82 20.5283 130.708 21.512 131.853 22.2162C132.999 22.9203 134.365 23.2697 135.952 23.2697C137.076 23.2697 138.087 23.0923 138.98 22.7429C139.873 22.3936 140.626 21.9044 141.228 21.2755C141.836 20.6519 142.266 19.9263 142.519 19.1092L139.97 18.4051C139.765 18.9641 139.469 19.4264 139.087 19.8026C138.706 20.1789 138.254 20.4584 137.727 20.6466C137.2 20.8347 136.613 20.9261 135.968 20.9261C134.973 20.9261 134.096 20.7111 133.338 20.2757C132.579 19.8403 131.993 19.2006 131.574 18.3567C131.197 17.5988 130.998 16.6796 130.961 15.626H142.788V14.5295C142.788 13.0136 142.583 11.7343 142.175 10.6915C141.766 9.64868 141.212 8.80476 140.523 8.1651L140.518 8.15435ZM131.498 11.2882C131.87 10.5141 132.407 9.87982 133.112 9.39604C133.817 8.91227 134.661 8.67038 135.651 8.67038C136.64 8.67038 137.463 8.90689 138.13 9.37992C138.797 9.85295 139.297 10.5087 139.631 11.3419C139.878 11.9601 140.034 12.6374 140.099 13.3845H130.966C131.014 12.6427 131.186 11.9439 131.504 11.2828L131.498 11.2882Z" fill="var(--fill-0, white)"/>
<path id="Vector_11" d="M158.746 6.53638H155.723L153.642 9.71319C153.104 10.5356 152.663 11.2989 152.313 12.0138C152.168 12.3148 152.007 12.6159 151.845 12.9115C151.678 12.6159 151.506 12.3202 151.345 12.0138C150.958 11.2989 150.501 10.5356 149.973 9.71319L147.935 6.53638H144.859L150.285 14.5133L144.52 22.915H147.569L150 19.2382C150.527 18.4373 150.963 17.6902 151.307 17.0021C151.442 16.728 151.587 16.4592 151.738 16.1904C151.894 16.4592 152.044 16.7226 152.195 17.0021C152.571 17.6902 153.018 18.4373 153.534 19.2382L155.938 22.915H159.004L153.265 14.6477L158.74 6.53638H158.746Z" fill="var(--fill-0, white)"/>
<path id="Vector_12" d="M168.518 20.7165C168.26 20.7541 168.045 20.7756 167.878 20.7756C167.185 20.7756 166.69 20.6089 166.389 20.2703C166.093 19.9317 165.942 19.3995 165.942 18.6685V8.79401H169.314V6.53638H160.843V8.79401H163.307V18.8727C163.307 20.2112 163.705 21.254 164.495 22.0012C165.286 22.7483 166.394 23.1192 167.809 23.1192C168.153 23.1192 168.497 23.0923 168.841 23.044C169.191 22.9956 169.497 22.9203 169.772 22.8236L169.228 20.5982C169.013 20.6358 168.777 20.6788 168.518 20.7165Z" fill="var(--fill-0, white)"/>
<path id="Vector_13" d="M183.153 16.3517C183.153 17.2816 182.97 18.0718 182.61 18.733C182.25 19.3941 181.755 19.894 181.136 20.2327C180.518 20.5767 179.813 20.7433 179.033 20.7433C177.888 20.7433 176.984 20.3886 176.323 19.6736C175.656 18.9587 175.328 17.975 175.328 16.7118V6.53638H172.687V16.9376C172.687 18.3137 172.918 19.464 173.381 20.3832C173.843 21.3024 174.494 21.985 175.328 22.4419C176.161 22.8988 177.135 23.1246 178.237 23.1246C179.442 23.1246 180.507 22.8128 181.443 22.1893C182.18 21.6948 182.782 20.9153 183.256 19.8564V22.9203H185.805V6.53638H183.153V16.3517Z" fill="var(--fill-0, white)"/>
<path id="Vector_14" d="M197.417 6.29987C196.438 6.29987 195.561 6.55251 194.787 7.05241C194.007 7.55769 193.469 8.22423 193.168 9.05203H192.991V6.531H190.441V22.9096H193.082V12.6535C193.082 11.9117 193.259 11.2559 193.609 10.6807C193.959 10.1056 194.448 9.65944 195.067 9.33154C195.685 9.00365 196.39 8.84239 197.17 8.84239C197.519 8.84239 197.853 8.86389 198.165 8.90152C198.477 8.93914 198.67 8.9714 198.751 8.98752V6.33749C198.595 6.32674 198.38 6.31599 198.111 6.31062C197.842 6.29987 197.611 6.29449 197.417 6.29449V6.29987Z" fill="var(--fill-0, white)"/>
<path id="Vector_15" d="M212.697 8.15435C212.009 7.51469 211.24 7.05241 210.395 6.76214C209.551 6.47188 208.69 6.33212 207.824 6.33212C206.34 6.33212 205.044 6.69226 203.93 7.41793C202.822 8.13822 201.962 9.1434 201.359 10.4227C200.752 11.7021 200.451 13.1803 200.451 14.8627C200.451 16.5452 200.762 18.0127 201.381 19.2705C202 20.5283 202.887 21.512 204.033 22.2162C205.178 22.9203 206.544 23.2697 208.131 23.2697C209.255 23.2697 210.266 23.0923 211.159 22.7429C212.052 22.3936 212.805 21.9044 213.407 21.2755C214.015 20.6519 214.445 19.9263 214.698 19.1092L212.149 18.4051C211.944 18.9641 211.648 19.4264 211.267 19.8026C210.885 20.1789 210.433 20.4584 209.906 20.6466C209.379 20.8347 208.793 20.9261 208.147 20.9261C207.152 20.9261 206.275 20.7111 205.517 20.2757C204.759 19.8403 204.172 19.2006 203.753 18.3567C203.376 17.5988 203.177 16.6796 203.14 15.626H214.967V14.5295C214.967 13.0136 214.763 11.7343 214.354 10.6915C213.945 9.64868 213.391 8.80476 212.703 8.1651L212.697 8.15435ZM203.678 11.2882C204.049 10.5141 204.587 9.87982 205.291 9.39604C205.996 8.91227 206.84 8.67038 207.83 8.67038C208.819 8.67038 209.642 8.90689 210.309 9.37992C210.976 9.85295 211.476 10.5087 211.81 11.3419C212.057 11.9601 212.213 12.6374 212.278 13.3845H203.145C203.194 12.6427 203.366 11.9439 203.683 11.2828L203.678 11.2882Z" fill="var(--fill-0, white)"/>
<path id="Vector_16" d="M231.748 22.9042H232.931V7.03091H238.218V17.7654C238.218 18.7168 238.138 18.8835 237.836 18.948C237.675 18.9856 235.448 19.0447 234.642 18.991L234.873 20.3026C235.674 20.3294 236.626 20.3026 237.729 20.2165C238.181 20.1628 238.525 20.066 238.767 19.9317C239.009 19.7973 239.176 19.593 239.272 19.3189C239.369 19.0447 239.423 18.6685 239.423 18.1901V5.82684H231.748V22.9042Z" fill="var(--fill-0, white)"/>
<path id="Vector_17" d="M227.628 6.52025C228.714 6.19773 229.747 5.82146 230.737 5.40219L230.29 4.30562C229.473 4.64427 228.343 5.03667 226.907 5.48819C225.595 5.88059 224.428 6.16548 223.395 6.33212V19.8134L222.604 20.195L222.997 21.4529L230.462 18.69L230.113 17.5235L224.6 19.4748V12.8631H230.522V11.6376H224.6V7.32655C225.434 7.15992 226.439 6.89115 227.623 6.52563L227.628 6.52025Z" fill="var(--fill-0, white)"/>
<path id="Vector_18" d="M266.068 6.34287V4.268H264.906V6.34287H258.656V4.2895H257.516V6.34287H252.751V7.46631H257.516V9.24016H258.656V7.46631H264.906V9.26166H266.068V7.46631H271V6.34287H266.068Z" fill="var(--fill-0, white)"/>
<path id="Vector_19" d="M269.435 19.9854C269.381 20.4638 269.284 20.8078 269.15 21.0121C269.015 21.2164 268.795 21.3561 268.483 21.426C268.171 21.4959 267.681 21.5389 267.004 21.555C266.213 21.5819 265.557 21.5819 265.035 21.555C264.627 21.5281 264.325 21.469 264.126 21.3776C263.927 21.2862 263.793 21.1357 263.712 20.9207C263.637 20.7111 263.594 20.3939 263.594 19.9693V16.4753C264.024 16.2173 264.449 15.9539 264.885 15.6798C267.068 14.2876 268.897 12.9115 270.36 11.5569L269.602 10.6485C268.235 11.9009 266.498 13.2071 264.401 14.5563C264.137 14.7284 263.863 14.8896 263.599 15.0509V9.9712L262.416 10.0357V15.7658C260.942 16.6205 259.447 17.3999 257.914 18.0879L258.463 19.206C259.759 18.6201 261.077 17.932 262.416 17.1687V20.3079C262.416 20.9583 262.481 21.4421 262.604 21.7646C262.733 22.0872 262.965 22.3183 263.303 22.4634C263.642 22.6032 264.164 22.6946 264.869 22.7376C265.207 22.7537 265.579 22.7591 265.977 22.7591C266.375 22.7591 266.756 22.7537 267.106 22.7376C268.053 22.7214 268.746 22.6516 269.187 22.5279C269.629 22.4043 269.951 22.1839 270.15 21.8721C270.349 21.5604 270.489 21.0551 270.575 20.3509C270.661 19.7596 270.72 19.12 270.763 18.4266L269.58 18.1309C269.564 18.4803 269.516 19.1039 269.43 19.9908L269.435 19.9854Z" fill="var(--fill-0, white)"/>
<path id="Vector_20" d="M259.431 10.8151L258.441 10.1002C257.887 10.799 257.344 11.4279 256.812 11.9762C256.284 12.5245 255.72 13.0674 255.117 13.6049C253.95 14.6692 252.756 15.583 251.525 16.3463L252.218 17.3945C253.45 16.6151 254.612 15.7174 255.714 14.6961C255.833 14.5886 255.946 14.4811 256.064 14.3736V22.9096H257.247V13.2394C258.016 12.46 258.748 11.6591 259.42 10.8205L259.431 10.8151Z" fill="var(--fill-0, white)"/>
<path id="Vector_21" d="M247.625 8.26185H246.291V18.905H247.625V8.26185Z" fill="var(--fill-0, white)"/>
</g>
<defs>
<clipPath id="clip0_0_14">
<rect width="271" height="28" fill="white"/>
</clipPath>
</defs>
</svg>
