<svg preserveAspectRatio="xMidYMid meet" width="100%" height="100%" viewBox="0 0 150 150" fill="none" xmlns="http://www.w3.org/2000/svg">
  <path d="M79.4824 64.167L98.3408 45.3086L104.705 51.6729L85.8965 70.4814H150V79.4834H112.5V79.4824H85.8799L104.696 98.2988L98.332 104.663L79.4824 85.8135V150H70.4805V85.8477L51.6465 104.682L45.2822 98.3164L64.1162 79.4824H37.5V79.4834H0V70.4814H64.1289L45.3057 51.6582L45.2881 51.6768L18.7715 25.1602L25.1367 18.7949L51.6348 45.293L51.6533 45.2754L70.4805 64.1025V0H79.4824V64.167ZM64.8125 111.371L50.4551 146.014L42.1396 142.568L56.4961 107.925L64.8125 111.371ZM100.973 125.913L104.389 134.238L107.84 142.564L99.5137 145.979L85.1758 111.361L93.501 107.91L100.973 125.913ZM131.214 124.865L124.849 131.23L98.333 104.714L104.697 98.3486L131.214 124.865ZM45.2959 111.049L25.1445 131.2L18.7793 124.835L38.9307 104.684L45.2959 111.049ZM42.0566 93.4873L7.41113 107.838L3.96582 99.5215L38.6113 85.1709L42.0566 93.4873ZM145.979 99.5186L142.534 107.835L126.065 101.014L129.511 92.6973L145.979 99.5186ZM121.246 89.2979L117.8 97.6143L107.939 93.5273L111.386 85.2119L121.246 89.2979ZM42.1035 56.4893L38.6582 64.8047L22.0264 57.9121L25.4727 49.5967L42.1035 56.4893ZM145.979 50.4502L119.651 61.3379L111.361 64.7891L107.91 56.499L142.563 42.125L145.979 50.4502ZM17.124 46.1602L13.6777 54.4756L3.98145 50.458L7.42773 42.1416L17.124 46.1602ZM118.477 37.8701L104.69 51.6562L98.3252 45.292L112.111 31.5049L118.477 37.8701ZM61.3379 30.3135L64.7891 38.6387L56.499 42.0898L42.125 7.43555L50.4512 3.98438L61.3379 30.3135ZM107.84 7.43555L96.9521 33.7646L93.501 42.0898L85.1758 38.6387L99.5137 3.98438L107.84 7.43555ZM131.191 25.1426L124.827 31.5078L118.462 25.1426L124.827 18.7783L131.191 25.1426Z" fill="#F4F3EF"/>
</svg>
