<svg preserveAspectRatio="xMidYMid meet" width="100%" height="100%" overflow="visible" style="display: block;" viewBox="0 0 198 60" fill="none" xmlns="http://www.w3.org/2000/svg">
<g id="&#229;&#141;&#176;&#232;&#138;&#177;logo" clip-path="url(#clip0_0_4)">
<path id="Union" d="M28.7705 39.0578C29.8413 39.0578 30.8909 39.2379 31.9346 39.592C32.9726 39.9461 33.9183 40.518 34.7607 41.3078C35.6086 42.0977 36.2826 43.133 36.7881 44.424C37.2936 45.7098 37.5439 47.2903 37.5439 49.1535V50.51H22.9961C23.0411 51.8176 23.2929 52.9431 23.7588 53.8821C24.2751 54.9225 24.9984 55.7124 25.9277 56.2463C26.8572 56.7802 27.9392 57.048 29.1621 57.0481C29.9557 57.0481 30.6739 56.9331 31.3262 56.7043C31.9728 56.4755 32.5326 56.1317 33 55.6633C33.4673 55.2003 33.8266 54.6231 34.082 53.9367L37.2178 54.8029C36.9079 55.8163 36.3755 56.7047 35.6309 57.4729C34.8863 58.2409 33.9621 58.8452 32.8643 59.2756C31.7664 59.7114 30.527 59.924 29.1465 59.924V59.9299C27.2005 59.9299 25.5201 59.4934 24.1123 58.6272C22.7047 57.761 21.6125 56.5517 20.8516 54.9992C20.0906 53.4465 19.71 51.6375 19.71 49.5617C19.71 47.486 20.0795 45.6665 20.8242 44.092C21.5689 42.5176 22.6231 41.2808 23.9873 40.3928C25.3516 39.4994 26.9443 39.0579 28.7705 39.0578ZM117.476 39.0578C118.546 39.0578 119.596 39.2379 120.64 39.592C121.678 39.9461 122.623 40.518 123.466 41.3078C124.314 42.0977 124.988 43.133 125.493 44.424C125.999 45.7098 126.249 47.2903 126.249 49.1535V50.51H111.701C111.746 51.8176 111.998 52.9431 112.464 53.8821C112.98 54.9225 113.704 55.7124 114.633 56.2463C115.562 56.7802 116.644 57.048 117.867 57.0481C118.661 57.0481 119.379 56.9331 120.031 56.7043C120.678 56.4755 121.238 56.1317 121.705 55.6633C122.172 55.2003 122.532 54.6231 122.787 53.9367L125.923 54.8029C125.613 55.8163 125.081 56.7047 124.336 57.4729C123.591 58.2409 122.667 58.8452 121.569 59.2756C120.471 59.7115 119.231 59.924 117.851 59.924V59.9299C115.905 59.9298 114.225 59.4934 112.817 58.6272C111.41 57.761 110.318 56.5517 109.557 54.9992C108.796 53.4465 108.415 51.6375 108.415 49.5617C108.415 47.486 108.785 45.6665 109.529 44.092C110.274 42.5176 111.328 41.2808 112.692 40.3928C114.057 39.4994 115.649 39.0579 117.476 39.0578ZM70.1475 42.0871H66V54.258C66 55.1623 66.1847 55.8215 66.5488 56.2356C66.913 56.6496 67.5217 56.8566 68.375 56.8567C68.5816 56.8567 68.8429 56.8354 69.1582 56.7863C69.4788 56.7373 69.7669 56.6883 70.0332 56.6447L70.7012 59.3899C70.3642 59.5097 69.984 59.6024 69.5547 59.6623C69.1309 59.7222 68.707 59.7551 68.2832 59.7551C66.5438 59.7551 65.1839 59.2975 64.2109 58.3713C63.2382 57.4506 62.7549 56.1645 62.7549 54.5139V42.0871H59.7324V39.3088H70.1475V42.0871ZM90.4121 59.4885H87.2754V55.7229C86.6957 57.0246 85.9553 57.979 85.0518 58.5842C83.9049 59.3522 82.5946 59.7385 81.1162 59.7385V59.7502C79.7576 59.7502 78.5672 59.4724 77.54 58.9113C76.5127 58.3502 75.7133 57.5054 75.1426 56.3723C74.5719 55.2391 74.2891 53.8279 74.2891 52.1281V39.3088H77.5293V51.8557C77.5293 53.4082 77.9367 54.6231 78.752 55.5002C79.5673 56.3773 80.6817 56.8185 82.084 56.8186C83.0461 56.8186 83.9054 56.6062 84.6719 56.1867C85.4328 55.7672 86.0358 55.1459 86.4814 54.3342C86.9271 53.5224 87.1504 52.5418 87.1504 51.3977V39.3029H90.4121V59.4885ZM105.539 39.0363C105.87 39.0472 106.131 39.0581 106.321 39.0744V42.343C106.223 42.3212 105.984 42.2836 105.599 42.2346C105.213 42.1856 104.805 42.1633 104.376 42.1633C103.414 42.1633 102.555 42.3646 101.788 42.7678C101.027 43.171 100.429 43.7271 99.9941 44.4299C99.5594 45.1326 99.3477 45.9444 99.3477 46.8596V59.4992H96.1084V39.3088H99.2441V42.4143H99.4619C99.8315 41.39 100.495 40.567 101.451 39.9514C102.408 39.3303 103.484 39.0197 104.686 39.0197C104.925 39.0197 105.213 39.0255 105.539 39.0363ZM21.6553 35.6252H13.2412V59.4944H9.81641V35.6252H1.36914V32.591H21.6553V35.6252ZM46.3936 43.2199C47.0403 44.2332 47.6053 45.1759 48.0781 46.0529C48.2805 46.4283 48.487 46.7984 48.6953 47.1633C48.8944 46.7981 49.087 46.4285 49.2686 46.0529C49.6925 45.1758 50.2363 44.2278 50.8994 43.2199L53.46 39.3029H57.1719L50.4414 49.2971L57.4932 59.4885H53.7256L50.7695 54.9553C50.1336 53.9692 49.5841 53.0487 49.1221 52.2043C48.9368 51.8636 48.7477 51.5296 48.5576 51.2004C48.3776 51.5295 48.2029 51.8636 48.0352 52.2043C47.6166 53.0541 47.0784 53.9693 46.4316 54.9553L43.4414 59.4885H39.6963L39.6855 59.4934L46.7754 49.135L40.1045 39.3029H43.8877L46.3936 43.2199ZM117.476 41.9504C116.264 41.9505 115.225 42.2502 114.361 42.844C113.497 43.4378 112.834 44.2171 112.377 45.176C111.989 45.9903 111.768 46.852 111.71 47.7639H122.944C122.864 46.8451 122.673 46.0062 122.368 45.2473C121.955 44.2176 121.335 43.4113 120.52 42.8283C119.704 42.2454 118.688 41.9504 117.476 41.9504ZM28.7705 41.9504C27.5586 41.9505 26.5204 42.2502 25.6562 42.844C24.792 43.4378 24.1285 44.2171 23.6719 45.176C23.2841 45.9903 23.0633 46.852 23.0049 47.7639H34.2393C34.1592 46.8451 33.9675 46.0062 33.6631 45.2473C33.25 44.2176 32.6298 43.4113 31.8145 42.8283C30.9991 42.2454 29.9826 41.9504 28.7705 41.9504ZM72.1152 7.34982C73.7947 7.34984 75.2784 7.76918 76.5557 8.6135C77.833 9.45796 78.8386 10.6569 79.5615 12.2151C80.2899 13.7732 80.6494 15.62 80.6494 17.7502C80.6494 19.8804 80.2903 21.7491 79.5674 23.3127C78.8445 24.8761 77.8445 26.0853 76.5674 26.9406C75.29 27.796 73.8056 28.2219 72.126 28.2219C70.854 28.2219 69.8267 28.003 69.0439 27.5617C68.2613 27.1205 67.6636 26.6248 67.2451 26.0637C66.8267 25.5026 66.4998 25.0402 66.2715 24.6643H66.0215V34.509H62.7822V7.59982H65.918V10.8313H66.2773C66.5056 10.4717 66.8213 10.0138 67.2344 9.46897C67.642 8.9189 68.2285 8.42855 69 7.99826C69.7664 7.56241 70.8052 7.34982 72.1152 7.34982ZM49.541 7.34397C50.2149 7.344 50.9812 7.42568 51.8398 7.58908C52.6987 7.75253 53.5252 8.07449 54.3242 8.55393C55.123 9.03331 55.7804 9.74684 56.3076 10.6946C56.8294 11.6371 57.0908 12.9013 57.0908 14.4758V27.7854H53.9004V25.0393H53.6826C53.4543 25.5078 53.0904 25.9932 52.585 26.4944C52.0794 26.9956 51.4266 27.4149 50.6221 27.7473C49.8176 28.085 48.8445 28.2541 47.7031 28.2541V28.26C46.4313 28.2599 45.2735 28.0202 44.2354 27.5354C43.1972 27.0559 42.3711 26.3473 41.7568 25.4211C41.1426 24.4949 40.8379 23.3671 40.8379 22.0432C40.8379 20.8882 41.0668 19.9514 41.5234 19.2268C41.98 18.5022 42.5886 17.9358 43.3496 17.5217C44.1106 17.1076 44.9533 16.7971 45.8828 16.5901C46.8068 16.3831 47.7365 16.2246 48.6768 16.1047C49.8777 15.9468 50.8559 15.827 51.6113 15.7453C52.3668 15.6636 52.9272 15.5168 53.2969 15.3098C53.6611 15.1028 53.8457 14.7532 53.8457 14.2629V14.1545C53.8457 13.31 53.6878 12.5959 53.3779 12.0129C53.0681 11.4302 52.5956 10.9831 51.9707 10.6672C51.3457 10.3513 50.5682 10.1985 49.6279 10.1985C48.6876 10.1985 47.845 10.352 47.1602 10.6516C46.4754 10.9512 45.9206 11.3265 45.4912 11.7785C45.0674 12.2306 44.7413 12.6885 44.5293 13.1623L41.4141 12.133C41.9305 10.9072 42.6268 9.94311 43.502 9.25119C44.3771 8.55932 45.3444 8.06825 46.4043 7.77951C47.4588 7.49079 48.5083 7.34397 49.541 7.34397ZM124.319 7.34982C125.292 7.34984 126.211 7.47464 127.075 7.73068C127.939 7.9813 128.728 8.34656 129.445 8.82053C130.157 9.29441 130.777 9.87729 131.293 10.5744C131.809 11.2718 132.206 12.0518 132.483 12.9289L129.369 13.8108C129.222 13.2933 129.004 12.8197 128.7 12.384C128.401 11.9482 128.037 11.5721 127.607 11.2561C127.183 10.9347 126.694 10.6892 126.14 10.5149C125.585 10.3406 124.982 10.2532 124.319 10.2531C122.977 10.2531 121.867 10.608 121.003 11.3108C120.139 12.0135 119.497 12.9393 119.073 14.0832C118.655 15.2272 118.443 16.475 118.443 17.8205C118.443 19.1662 118.655 20.3762 119.073 21.5149C119.492 22.6534 120.133 23.5685 121.003 24.2658C121.873 24.9632 122.971 25.3117 124.319 25.3117C124.993 25.3117 125.608 25.219 126.173 25.0393C126.738 24.8595 127.238 24.604 127.679 24.2717C128.119 23.9394 128.488 23.5467 128.787 23.0891C129.086 22.6315 129.309 22.1304 129.456 21.591L132.554 22.4738C132.287 23.3781 131.897 24.1793 131.375 24.8821C130.853 25.5849 130.233 26.189 129.51 26.6848C128.787 27.1859 127.988 27.562 127.113 27.8235C126.238 28.0795 125.309 28.2102 124.319 28.2102V28.2219C122.493 28.2219 120.895 27.7854 119.52 26.9192C118.144 26.0529 117.073 24.8383 116.307 23.2746C115.54 21.711 115.154 19.8908 115.154 17.8205C115.154 15.7506 115.54 13.8767 116.307 12.3078C117.073 10.7388 118.15 9.51784 119.52 8.65158C120.895 7.78538 122.493 7.34982 124.319 7.34982ZM11.7959 0.522676C13.2143 0.522724 14.5349 0.735154 15.7686 1.15451C16.997 1.57402 18.1012 2.17914 19.0742 2.95822C20.0471 3.73728 20.8567 4.6696 21.498 5.74826C22.1394 6.82691 22.5796 8.01464 22.8242 9.31662H19.291C19.0139 8.45054 18.6498 7.67137 18.1934 6.99045C17.7368 6.30943 17.193 5.71475 16.5625 5.21897C15.9322 4.72337 15.2201 4.34805 14.4268 4.09201C13.6331 3.83595 12.7628 3.70432 11.8115 3.70432C10.2354 3.70435 8.81154 4.11343 7.52344 4.92502C6.24068 5.73676 5.21844 6.93542 4.46289 8.52072C3.70733 10.1061 3.32617 12.0515 3.32617 14.3615C3.3262 16.6715 3.7068 18.5785 4.46777 20.1584C5.22876 21.7329 6.26719 22.9315 7.57715 23.7541C8.88715 24.5713 10.3662 24.9797 12.0078 24.9797C13.5186 24.9797 14.8556 24.6585 16.0078 24.0158C17.1601 23.373 18.0568 22.4573 18.6982 21.2697C19.3136 20.1302 19.6332 18.8 19.6582 17.2649H12.709V14.2688H23.0146V17.2112C23.0146 19.4393 22.542 21.3682 21.5908 23.008C20.6396 24.6424 19.3399 25.9119 17.6875 26.8108C16.0351 27.7096 14.1435 28.1565 12.002 28.1565L12.0127 28.1506C9.62108 28.1506 7.52823 27.5897 5.72363 26.4729C3.92445 25.356 2.51689 23.7594 1.50586 21.6946C0.494823 19.6297 0 17.1833 0 14.3557C2.21826e-05 11.5282 0.505164 9.04354 1.51074 6.97873C2.52177 4.91394 3.91397 3.32369 5.69141 2.20139C7.46887 1.08452 9.50205 0.522676 11.7959 0.522676ZM37.6045 7.32736C37.9358 7.33825 38.1966 7.34912 38.3867 7.36545V10.635C38.2888 10.6132 38.0498 10.5746 37.6641 10.5256C37.2781 10.4766 36.8698 10.4553 36.4404 10.4553C35.4785 10.4554 34.6198 10.6567 33.8535 11.0598C33.0926 11.4629 32.4944 12.0182 32.0596 12.7209C31.6247 13.4237 31.4131 14.2363 31.4131 15.1516V27.7912H28.1729V7.59982H31.3096V10.7053H31.5273C31.897 9.68124 32.5601 8.85894 33.5166 8.24338C34.4733 7.62229 35.5497 7.31174 36.751 7.31174C36.9901 7.31174 37.2785 7.31647 37.6045 7.32736ZM88.6123 11.091C89.1611 9.94901 89.8453 9.09162 90.6719 8.52072C91.8079 7.73619 93.1347 7.34983 94.6621 7.34982C96.021 7.34982 97.2119 7.62753 98.2393 8.18869C99.2664 8.74985 100.065 9.58938 100.636 10.717C101.206 11.8447 101.489 13.2609 101.489 14.966V27.7854H98.2275V15.2385C98.2275 13.686 97.8204 12.4711 97.0107 11.594C96.2008 10.7168 95.0914 10.2756 93.6836 10.2756C92.7215 10.2756 91.8572 10.4879 91.0908 10.9074C90.3245 11.3269 89.7152 11.9421 89.2695 12.7483C88.8238 13.5546 88.6016 14.5357 88.6016 15.6906H88.6123V27.7854H85.3721V0.883028H88.6123V11.091ZM110.426 27.7854H107.187V7.59982H110.426V27.7854ZM53.8398 17.7014C53.7092 17.8592 53.4209 18.001 52.9756 18.1262C52.53 18.2514 52.0246 18.3656 51.4541 18.4582C50.8834 18.5563 50.3286 18.638 49.7959 18.7033C49.2635 18.7687 48.8396 18.823 48.5244 18.8557C47.7418 18.9537 47.0133 19.1176 46.334 19.3518C45.6547 19.586 45.1108 19.9291 44.7031 20.3811C44.2954 20.8333 44.0889 21.4439 44.0889 22.2121C44.0889 22.9093 44.2679 23.4921 44.6318 23.966C44.9905 24.4345 45.4854 24.7892 46.1104 25.0344C46.7353 25.2741 47.4476 25.3937 48.252 25.3938L48.2578 25.3889C49.459 25.3889 50.4756 25.1543 51.3018 24.6858C52.128 24.2172 52.7585 23.6066 53.1934 22.8547C53.6281 22.1029 53.8398 21.3183 53.8398 20.5012V17.7014ZM71.6426 10.259C70.3707 10.259 69.3644 10.569 68.5273 11.1955C67.6848 11.8221 67.0544 12.6945 66.625 13.8059C66.2011 14.9172 65.9834 16.2245 65.9834 17.717C65.9834 19.2098 66.2014 20.529 66.6309 21.6731C67.0603 22.817 67.7019 23.7109 68.5498 24.3537C69.3977 24.9963 70.4248 25.3176 71.6367 25.3176L71.6426 25.3117C72.9035 25.3117 73.9578 24.9741 74.8057 24.2932C75.6536 23.6122 76.2899 22.6967 76.7139 21.5471C77.1377 20.3977 77.3555 19.1175 77.3555 17.7121C77.3555 16.3065 77.1432 15.0532 76.7246 13.9309C76.3061 12.8031 75.6702 11.9094 74.8223 11.2502C73.9744 10.591 72.9144 10.2591 71.6426 10.259ZM108.822 0.00509819C109.436 0.00510743 109.98 0.21224 110.426 0.626192C110.871 1.04015 111.095 1.55248 111.095 2.15158C111.095 2.75079 110.871 3.24677 110.426 3.66623C109.98 4.08573 109.447 4.29903 108.822 4.29904C108.208 4.29904 107.681 4.08574 107.235 3.66623C106.79 3.24672 106.566 2.73998 106.566 2.15158C106.567 1.56336 106.79 1.04015 107.235 0.626192C107.681 0.212356 108.208 0.00509819 108.822 0.00509819Z" fill="var(--fill-0, #F5F5F5)"/>
<g id="Group">
<path id="Vector" d="M144.013 56.4157V41.0846C145.182 40.8939 146.508 40.5724 147.992 40.1257C149.623 39.6135 150.9 39.1668 151.829 38.78L152.335 40.0276C151.215 40.507 150.041 40.932 148.813 41.3025C147.47 41.722 146.328 42.0216 145.383 42.2178V56.0397L151.634 53.8223L152.031 55.1462L143.567 58.2898L143.121 56.857L144.018 56.4266L144.013 56.4157ZM144.709 47.1102H152.096V48.5049H144.709V47.1102ZM162.19 54.5633C162.19 55.1081 162.135 55.5385 162.021 55.8491C161.907 56.1596 161.717 56.3939 161.445 56.5464C161.173 56.699 160.782 56.8079 160.271 56.8733C159.026 56.9714 157.945 57.0041 157.031 56.9714L156.765 55.4786C157.678 55.544 160.2 55.4731 160.385 55.4295C160.722 55.3533 160.815 55.1626 160.815 54.0838V41.8745H154.819V59.9297H153.476V40.5016H162.179V54.5633H162.19Z" fill="var(--fill-0, #F5F5F5)"/>
<path id="Vector_2" d="M175.92 52.4658C177.312 51.594 178.671 50.5534 179.992 49.344C180.671 48.7338 181.307 48.1181 181.91 47.4916C182.508 46.8705 183.128 46.1568 183.759 45.3614L184.878 46.1731C183.623 47.7368 182.22 49.2078 180.671 50.5861C179.421 51.7411 178.1 52.7654 176.703 53.6535L175.92 52.4603V52.4658ZM177.306 41.09H198V42.3649H177.306V41.09ZM181.068 48.6793L182.411 47.3826V59.9297H181.068V48.6793ZM183.155 54.4434C185.683 53.3048 188.134 51.97 190.515 50.4281C192.896 48.8918 194.864 47.4099 196.413 45.9824L197.277 47.0176C195.614 48.554 193.543 50.1176 191.064 51.703C188.569 53.3048 186.139 54.645 183.775 55.7183L183.15 54.4434H183.155ZM182.704 38.7527H183.998V44.3807H182.704V38.7527ZM188.265 45.2851L189.607 45.2143V56.5846C189.607 57.064 189.651 57.4236 189.738 57.6687C189.825 57.9085 189.982 58.0828 190.205 58.1863C190.428 58.2898 190.771 58.3607 191.238 58.3879C191.831 58.4206 192.575 58.4206 193.467 58.3879C194.233 58.3716 194.793 58.3225 195.146 58.2462C195.5 58.1645 195.75 58.012 195.902 57.7777C196.054 57.5434 196.163 57.1566 196.228 56.6118C196.326 55.6039 196.38 54.8956 196.397 54.4979L197.739 54.8357C197.69 55.6202 197.62 56.3503 197.522 57.0204C197.424 57.8213 197.266 58.3988 197.043 58.7529C196.821 59.1071 196.456 59.3522 195.951 59.4993C195.445 59.6464 194.663 59.7227 193.586 59.739C193.184 59.7554 192.76 59.7608 192.304 59.7608C191.847 59.7608 191.428 59.7554 191.042 59.739C190.243 59.69 189.651 59.5865 189.27 59.4285C188.884 59.2705 188.624 59.0035 188.477 58.6331C188.335 58.2626 188.259 57.7123 188.259 56.9768V45.296L188.265 45.2851ZM191.086 38.7309H192.407V44.4079H191.086V38.7309Z" fill="var(--fill-0, #F5F5F5)"/>
<path id="Vector_3" d="M171.49 43.2747H169.979V55.386H171.49V43.2747Z" fill="var(--fill-0, #F5F5F5)"/>
</g>
</g>
<defs>
<clipPath id="clip0_0_4">
<rect width="198" height="60" fill="white"/>
</clipPath>
</defs>
</svg>
