<svg width="330" height="330" viewBox="0 0 330 330" fill="none" xmlns="http://www.w3.org/2000/svg">
<path d="M165.249 330H164.749V270H165.249V330ZM179.628 329.354L179.129 329.397L173.9 269.626L174.398 269.582L179.628 329.354ZM156.097 269.622L150.867 329.395L150.369 329.351L155.598 269.579L156.097 269.622ZM193.896 327.453L193.403 327.54L182.984 268.452L183.478 268.365L193.896 327.453ZM147.012 268.448L136.593 327.537L136.101 327.45L146.52 268.361L147.012 268.448ZM207.944 324.316L207.462 324.446L191.933 266.49L192.415 266.361L207.944 324.316ZM138.064 266.487L122.535 324.442L122.052 324.313L137.581 266.357L138.064 266.487ZM221.667 319.968L221.196 320.139L200.676 263.757L201.146 263.586L221.667 319.968ZM129.322 263.754L108.801 320.136L108.331 319.964L128.852 263.583L129.322 263.754ZM234.957 314.438L234.504 314.65L209.146 260.271L209.6 260.061L234.957 314.438ZM120.852 260.269L95.4941 314.646L95.041 314.436L120.397 260.058L120.852 260.269ZM247.715 307.772L247.282 308.022L217.282 256.062L217.715 255.812L247.715 307.772ZM112.716 256.059L82.7158 308.02L82.2832 307.77L112.283 255.809L112.716 256.059ZM259.844 300.021L259.434 300.307L225.02 251.158L225.429 250.871L259.844 300.021ZM104.979 251.155L70.5645 300.305L70.1543 300.018L104.569 250.868L104.979 251.155ZM271.25 291.24L270.867 291.562L232.3 245.599L232.683 245.277L271.25 291.24ZM97.6982 245.597L59.1309 291.56L58.748 291.237L97.3154 245.275L97.6982 245.597ZM281.849 281.499L281.494 281.854L239.068 239.427L239.422 239.073L281.849 281.499ZM90.9307 239.425L48.5039 281.851L48.1504 281.497L90.5762 239.07L90.9307 239.425ZM291.558 270.872L291.235 271.255L245.273 232.688L245.595 232.305L291.558 270.872ZM84.7256 232.686L38.7627 271.253L38.4414 270.87L84.4043 232.303L84.7256 232.686ZM300.303 259.438L300.016 259.849L250.866 225.434L251.153 225.024L300.303 259.438ZM79.1318 225.432L29.9824 259.847L29.6953 259.437L78.8447 225.022L79.1318 225.432ZM308.019 247.287L307.769 247.72L255.807 217.72L256.057 217.287L308.019 247.287ZM74.1924 217.718L22.2305 247.718L21.9805 247.285L73.9414 217.285L74.1924 217.718ZM314.646 234.509L314.435 234.962L260.056 209.604L260.268 209.151L314.646 234.509ZM69.9434 209.604L15.5645 234.96L15.3535 234.507L69.7314 209.149L69.9434 209.604ZM320.135 221.201L319.963 221.671L263.582 201.15L263.753 200.68L320.135 221.201ZM66.417 201.148L10.0352 221.67L9.86426 221.2L66.2461 200.679L66.417 201.148ZM324.442 207.467L324.312 207.949L266.357 192.42L266.486 191.938L324.442 207.467ZM63.6416 192.419L5.68652 207.948L5.55664 207.466L63.5127 191.937L63.6416 192.419ZM327.536 193.408L327.45 193.901L268.361 183.482L268.448 182.989L327.536 193.408ZM61.6377 183.481L2.5498 193.9L2.46289 193.408L61.5518 182.989L61.6377 183.481ZM329.394 179.134L329.351 179.633L269.578 174.403L269.622 173.905L329.394 179.134ZM60.4209 174.402L0.649414 179.632L0.605469 179.134L60.3779 173.904L60.4209 174.402ZM60 165.253L0 165.252V164.752H60V165.253ZM330 165.253L270 165.252V164.752H330V165.253ZM60.4209 155.603L60.3779 156.101L0.605469 150.871L0.649414 150.373L60.4209 155.603ZM329.394 150.871L269.622 156.1L269.578 155.602L329.351 150.372L329.394 150.871ZM61.6377 146.523L61.5518 147.016L2.46289 136.597L2.5498 136.104L61.6377 146.523ZM327.536 136.597L268.448 147.016L268.361 146.522L327.45 136.104L327.536 136.597ZM63.6416 137.585L63.5127 138.068L5.55664 122.539L5.68652 122.057L63.6416 137.585ZM324.442 122.538L266.486 138.067L266.357 137.584L324.312 122.055L324.442 122.538ZM66.417 128.855L66.2461 129.326L9.86426 108.805L10.0352 108.335L66.417 128.855ZM320.135 108.804L263.753 129.324L263.582 128.854L319.963 108.333L320.135 108.804ZM69.9424 120.401L69.7314 120.854L15.3525 95.498L15.5645 95.0449L69.9424 120.401ZM314.646 95.4961L260.268 120.854L260.057 120.4L314.435 95.043L314.646 95.4961ZM74.1914 112.287L73.9414 112.72L21.9795 82.7197L22.2295 82.2871L74.1914 112.287ZM308.02 82.7178L256.058 112.718L255.808 112.285L307.769 82.2852L308.02 82.7178ZM79.1309 104.573L78.8447 104.982L29.6953 70.5684L29.9824 70.1582L79.1309 104.573ZM300.303 70.5664L251.154 104.98L250.867 104.571L300.017 70.1562L300.303 70.5664ZM84.7256 97.3193L84.4033 97.7021L38.4414 59.1348L38.7627 58.752L84.7256 97.3193ZM291.558 59.1328L245.595 97.7002L245.273 97.3174L291.236 58.75L291.558 59.1328ZM90.9297 90.5801L90.5752 90.9346L48.1494 48.5078L48.5029 48.1543L90.9297 90.5801ZM281.85 48.5059L239.423 90.9316L239.069 90.5781L281.495 48.1514L281.85 48.5059ZM97.6973 84.4082L97.3145 84.7295L58.7471 38.7666L59.1299 38.4453L97.6973 84.4082ZM271.251 38.7646L232.684 84.7275L232.301 84.4053L270.868 38.4434L271.251 38.7646ZM104.978 78.8486L104.568 79.1357L70.1533 29.9863L70.5635 29.7002L104.978 78.8486ZM259.845 29.9844L225.43 79.1338L225.021 78.8467L259.435 29.6973L259.845 29.9844ZM112.715 73.9453L112.281 74.1963L82.2812 22.2344L82.7148 21.9844L112.715 73.9453ZM247.716 22.2314L217.716 74.1934L217.283 73.9434L247.283 21.9814L247.716 22.2314ZM120.85 69.7354L120.396 69.9473L95.0391 15.5684L95.4922 15.3574L120.85 69.7354ZM234.958 15.5654L209.601 69.9434L209.147 69.7324L234.505 15.3545L234.958 15.5654ZM129.321 66.25L128.851 66.4219L108.33 10.04L108.8 9.86914L129.321 66.25ZM221.668 10.0371L201.146 66.418L200.677 66.2471L221.197 9.86523L221.668 10.0371ZM138.063 63.5166L137.58 63.6465L122.051 5.69043L122.534 5.56055L138.063 63.5166ZM207.945 5.6875L192.416 63.6426L191.934 63.5137L207.463 5.55762L207.945 5.6875ZM147.011 61.5557L146.519 61.6416L136.1 2.55371L136.592 2.4668L147.011 61.5557ZM193.897 2.5498L183.479 61.6387L182.985 61.5518L193.404 2.46387L193.897 2.5498ZM156.096 60.3809L155.597 60.4248L150.368 0.65332L150.866 0.609375L156.096 60.3809ZM179.629 0.649414L174.399 60.4219L173.901 60.3779L179.13 0.606445L179.629 0.649414ZM165.249 60H164.749V0H165.249V60Z" fill="black" fill-opacity="0.2"/>
</svg>
