<svg preserveAspectRatio="xMidYMid meet" width="100%" height="100%" overflow="visible" style="display: block;" viewBox="0 0 60 60" fill="none" xmlns="http://www.w3.org/2000/svg">
<g id="Group">
<path id="Vector" d="M31.7932 45H28.1926V60H31.7932V45Z" fill="var(--fill-0, #F5F5F5)"/>
<path id="Vector_2" d="M31.7932 0H28.1927V15H31.7932V0Z" fill="var(--fill-0, #F5F5F5)"/>
<path id="Vector_3" d="M41.879 39.3396L39.333 41.8855L49.9396 52.4921L52.4856 49.9462L41.879 39.3396Z" fill="var(--fill-0, #F5F5F5)"/>
<path id="Vector_4" d="M10.0548 7.51792L7.50879 10.0639L18.1154 20.6705L20.6614 18.1245L10.0548 7.51792Z" fill="var(--fill-0, #F5F5F5)"/>
<path id="Vector_5" d="M60 28.1926H45V31.7932H60V28.1926Z" fill="var(--fill-0, #F5F5F5)"/>
<path id="Vector_6" d="M15 28.1926H0V31.7932H15V28.1926Z" fill="var(--fill-0, #F5F5F5)"/>
<path id="Vector_7" d="M15.4446 34.0685L1.58643 39.8088L2.9643 43.1353L16.8225 37.395L15.4446 34.0685Z" fill="var(--fill-0, #F5F5F5)"/>
<path id="Vector_8" d="M22.5986 43.17L16.856 57.0272L20.1822 58.4057L25.9249 44.5485L22.5986 43.17Z" fill="var(--fill-0, #F5F5F5)"/>
<path id="Vector_9" d="M44.5445 25.9156L47.8605 24.5351L58.3917 20.1803L57.0255 16.8501L43.1641 22.5996L44.5445 25.9156Z" fill="var(--fill-0, #F5F5F5)"/>
<path id="Vector_10" d="M41.7553 53.6954L40.3891 50.3653L37.4005 43.1641L34.0703 44.5446L39.8056 58.3918L43.1358 57.0256L41.7553 53.6954Z" fill="var(--fill-0, #F5F5F5)"/>
<path id="Vector_11" d="M24.5351 12.1252L20.1803 1.59392L16.8501 2.97437L22.5996 16.8359L25.9155 15.4554L24.5351 12.1252Z" fill="var(--fill-0, #F5F5F5)"/>
<path id="Vector_12" d="M49.9305 7.51123L47.3845 10.0572L49.9305 12.6032L52.4765 10.0572L49.9305 7.51123Z" fill="var(--fill-0, #F5F5F5)"/>
<path id="Vector_13" d="M44.8447 12.602L39.3301 18.1167L41.8761 20.6627L47.3907 15.148L44.8447 12.602Z" fill="var(--fill-0, #F5F5F5)"/>
<path id="Vector_14" d="M15.5723 41.8735L7.51172 49.9341L10.0577 52.4801L18.1183 44.4195L15.5723 41.8735Z" fill="var(--fill-0, #F5F5F5)"/>
<path id="Vector_15" d="M51.8041 37.0788L50.4263 40.4053L57.0135 43.1339L58.3914 39.8074L51.8041 37.0788Z" fill="var(--fill-0, #F5F5F5)"/>
<path id="Vector_16" d="M44.5545 34.0848L43.176 37.411L47.1202 39.0456L48.4986 35.7193L44.5545 34.0848Z" fill="var(--fill-0, #F5F5F5)"/>
<path id="Vector_17" d="M10.189 19.8387L8.81055 23.1649L15.463 25.9219L16.8415 22.5956L10.189 19.8387Z" fill="var(--fill-0, #F5F5F5)"/>
<path id="Vector_18" d="M2.97099 16.8568L1.59253 20.183L5.47096 21.7903L6.84942 18.4641L2.97099 16.8568Z" fill="var(--fill-0, #F5F5F5)"/>
<path id="Vector_19" d="M38.7809 13.5057L43.1358 2.97437L39.8056 1.59392L34.0703 15.4554L37.4005 16.8359L38.7809 13.5057Z" fill="var(--fill-0, #F5F5F5)"/>
</g>
</svg>
