<svg preserveAspectRatio="xMidYMid meet" width="100%" height="100%" overflow="visible" style="display: block;" viewBox="0 0 28.64 27.16" fill="none" xmlns="http://www.w3.org/2000/svg">
<g id="uuid-5eece120-d1ab-4fa5-b18c-08c311a2835f" clip-path="url(#clip0_0_4)">
<path id="Vector" d="M14.5 2C15.44 2 16.31 2.36 16.98 3.03C17.58 3.63 17.94 4.43 18 5.27C18.07 6.32 18.54 7.29 19.32 7.98C19.42 8.07 19.52 8.17 19.63 8.27C20.74 9.38 21.46 10.78 21.72 12.32C22.04 14.25 23.7 15.65 25.65 15.66C25.92 15.66 26.16 15.76 26.36 15.95C26.55 16.14 26.65 16.38 26.65 16.66C26.65 16.94 26.55 17.18 26.36 17.37C26.17 17.56 25.92 17.66 25.65 17.66C25.47 17.66 25.3 17.61 25.15 17.53C24.54 17.17 23.84 16.98 23.13 16.98C21.95 16.98 20.83 17.5 20.07 18.4C19.93 18.56 19.79 18.72 19.64 18.87C18.22 20.29 16.34 21.07 14.33 21.07C14.05 21.07 13.76 21.05 13.49 21.02C13.34 21 13.18 20.99 13.03 20.99C11.57 20.99 10.23 21.79 9.52 23.07C9.34 23.4 9.11 23.71 8.84 23.98C8.09 24.74 7.08 25.15 6.01 25.15C4.94 25.15 3.94 24.73 3.18 23.98C2.43 23.22 2.01 22.22 2.01 21.15C2.01 20.08 2.43 19.08 3.18 18.32C3.54 17.96 3.96 17.67 4.41 17.47C5.91 16.82 6.85 15.35 6.82 13.71C6.77 11.66 7.56 9.72 9.02 8.25C9.19 8.08 9.38 7.91 9.58 7.74C10.39 7.08 10.91 6.13 11.02 5.09C11.11 4.3 11.47 3.55 12.02 3C12.68 2.34 13.56 1.97 14.5 1.97M14.5 0C13.03 0 11.65 0.57 10.61 1.61C9.73 2.49 9.17 3.65 9.03 4.9C8.97 5.42 8.71 5.89 8.31 6.23C8.06 6.43 7.83 6.65 7.6 6.87C5.75 8.72 4.76 11.18 4.81 13.78C4.83 14.59 4.35 15.33 3.61 15.66C2.92 15.96 2.3 16.39 1.76 16.93C0.63 18.06 0 19.57 0 21.17C0 22.77 0.62 24.28 1.76 25.41C2.89 26.54 4.4 27.17 6 27.17C7.6 27.17 9.11 26.55 10.24 25.41C10.64 25.01 10.99 24.55 11.26 24.05C11.61 23.4 12.29 23.01 13.01 23.01C13.08 23.01 13.16 23.01 13.23 23.02C13.59 23.06 13.95 23.08 14.31 23.08C16.85 23.08 19.23 22.09 21.03 20.29C21.22 20.1 21.41 19.9 21.58 19.69C21.97 19.22 22.54 18.98 23.11 18.98C23.46 18.98 23.8 19.07 24.12 19.25C24.57 19.51 25.09 19.65 25.63 19.65C26.43 19.65 27.18 19.34 27.75 18.77C28.32 18.21 28.63 17.45 28.63 16.65C28.63 15.85 28.32 15.09 27.75 14.53C27.18 13.97 26.43 13.65 25.64 13.65C24.67 13.65 23.83 12.94 23.67 11.98C23.34 10.03 22.43 8.25 21.02 6.85C20.9 6.73 20.77 6.6 20.64 6.49C20.25 6.14 20.01 5.65 19.98 5.13C19.89 3.8 19.33 2.55 18.38 1.6C17.34 0.56 15.96 -0.01 14.49 -0.01L14.5 0Z" fill="var(--fill-0, white)"/>
</g>
<defs>
<clipPath id="clip0_0_4">
<rect width="28.64" height="27.16" fill="white"/>
</clipPath>
</defs>
</svg>
