<svg preserveAspectRatio="none" width="100%" height="100%" overflow="visible" style="display: block;" viewBox="0 0 21 24" fill="none" xmlns="http://www.w3.org/2000/svg">
  <path id="nice try" d="M10.0967 13.7744L16.1553 15.002V16.6406L10.0967 17.8613L8.88379 24H7.27051L6.05762 17.8613L0 16.6406V15.002L6.05762 13.7744L7.27051 7.64258H8.88379L10.0967 13.7744ZM17.3682 5.19336L21 5.92578V6.90918L17.3682 7.64258L16.6436 11.3252H15.6719L14.9424 7.64258L11.3096 6.90918V5.92578L14.9424 5.19336L15.6719 1.51074H16.6436L17.3682 5.19336ZM3.78516 2.30078L6.05762 2.75781V3.37402L3.78516 3.83105L3.33398 6.13184H2.72461L2.27344 3.83105L0 3.37402V2.75781L2.27344 2.30078L2.72461 0H3.33398L3.78516 2.30078Z" fill="var(--fill-0, #555555)"/>
</svg>
