<svg preserveAspectRatio="none" width="100%" height="100%" overflow="visible" style="display: block;" viewBox="0 0 165 50" fill="none" xmlns="http://www.w3.org/2000/svg">
<g id="&#229;&#141;&#176;&#232;&#138;&#177;logo" clip-path="url(#clip0_0_16)">
<path id="Union" d="M23.9756 32.5481C24.8679 32.5481 25.7426 32.6983 26.6123 32.9934C27.4774 33.2885 28.2657 33.7648 28.9678 34.4231C29.6743 35.0813 30.236 35.9439 30.6572 37.0197C31.0785 38.0912 31.2871 39.4084 31.2871 40.9612V42.091H19.1641C19.2015 43.1811 19.4114 44.1189 19.7998 44.9016C20.2301 45.7687 20.832 46.4274 21.6064 46.8723C22.381 47.3172 23.2826 47.5393 24.3018 47.5393C24.9629 47.5393 25.561 47.4447 26.1045 47.2541C26.6434 47.0635 27.1105 46.7773 27.5 46.3869C27.8895 46.0011 28.1885 45.5195 28.4014 44.9475L31.0146 45.6692C30.7565 46.5136 30.3129 47.2537 29.6924 47.8938C29.0718 48.5339 28.3017 49.038 27.3867 49.3967C26.4717 49.7599 25.4386 49.9367 24.2881 49.9367V49.9416C22.6666 49.9416 21.2669 49.5785 20.0938 48.8567C18.9205 48.1348 18.0101 47.1262 17.376 45.8322C16.742 44.5385 16.4249 43.0315 16.4248 41.302C16.4248 39.5722 16.733 38.0555 17.3535 36.7434C17.9741 35.4314 18.8524 34.4004 19.9893 33.6604C21.1262 32.9158 22.4537 32.5481 23.9756 32.5481ZM97.8965 32.5481C98.7888 32.5481 99.6635 32.6983 100.533 32.9934C101.398 33.2885 102.187 33.7648 102.889 34.4231C103.595 35.0813 104.157 35.9439 104.578 37.0197C104.999 38.0912 105.208 39.4084 105.208 40.9612V42.091H93.085C93.1224 43.1811 93.3323 44.1189 93.7207 44.9016C94.151 45.7687 94.7529 46.4274 95.5273 46.8723C96.3019 47.3172 97.2035 47.5393 98.2227 47.5393C98.8838 47.5393 99.4819 47.4447 100.025 47.2541C100.564 47.0635 101.031 46.7773 101.421 46.3869C101.81 46.0011 102.109 45.5195 102.322 44.9475L104.936 45.6692C104.677 46.5136 104.234 47.2537 103.613 47.8938C102.993 48.5339 102.223 49.038 101.308 49.3967C100.393 49.7599 99.3595 49.9367 98.209 49.9367V49.9416C96.5875 49.9416 95.1878 49.5785 94.0146 48.8567C92.8414 48.1348 91.931 47.1262 91.2969 45.8322C90.6629 44.5385 90.3458 43.0315 90.3457 41.302C90.3457 39.5722 90.6539 38.0555 91.2744 36.7434C91.895 35.4314 92.7733 34.4004 93.9102 33.6604C95.0471 32.9158 96.3746 32.5481 97.8965 32.5481ZM58.4561 35.0725H55V45.2151C55 45.9687 55.1535 46.5184 55.457 46.8635C55.7605 47.2085 56.2684 47.3811 56.9795 47.3811C57.1516 47.3811 57.3692 47.3623 57.6318 47.3215C57.899 47.2807 58.1395 47.2396 58.3613 47.2033L58.918 49.4924C58.6372 49.5923 58.3197 49.669 57.9619 49.719C57.6087 49.7689 57.2555 49.7961 56.9023 49.7961C55.4529 49.7961 54.3206 49.4146 53.5098 48.6428C52.699 47.8756 52.296 46.8044 52.2959 45.4289V35.0725H49.7773V32.7571H58.4561V35.0725ZM75.3428 49.5735H72.7295V46.4348C72.2464 47.5198 71.6299 48.3151 70.877 48.8196C69.9213 49.4596 68.8296 49.7824 67.5977 49.7824V49.7912C66.4652 49.7912 65.4723 49.5596 64.6162 49.092C63.7604 48.6244 63.0947 47.9209 62.6191 46.9768C62.1435 46.0324 61.9082 44.8562 61.9082 43.4397V32.7571H64.6074V43.2131C64.6075 44.507 64.9475 45.5193 65.627 46.2502C66.3064 46.9811 67.2348 47.3488 68.4033 47.3488C69.205 47.3488 69.9209 47.172 70.5596 46.8225C71.1937 46.4729 71.6969 45.955 72.0684 45.2785C72.4397 44.6021 72.625 43.7846 72.625 42.8313V32.7522H75.3428V49.5735ZM87.9492 32.5305C88.2254 32.5396 88.4431 32.5481 88.6016 32.5617V35.2863C88.52 35.2682 88.3205 35.2364 87.999 35.1955C87.6774 35.1547 87.3373 35.136 86.9795 35.136C86.1778 35.136 85.4619 35.3039 84.8232 35.6399C84.1893 35.9758 83.6914 36.4391 83.3291 37.0246C82.9667 37.6103 82.79 38.2873 82.79 39.05V49.5832H80.0898V32.7571H82.7031V35.3449H82.8848C83.1928 34.4914 83.7457 33.8062 84.543 33.2932C85.3402 32.7756 86.2372 32.5168 87.2383 32.5168C87.4375 32.5168 87.6776 32.5214 87.9492 32.5305ZM18.0459 29.6877H11.0342V49.5783H8.18066V29.6877H1.1416V27.1594H18.0459V29.6877ZM38.6611 36.0168C39.2002 36.8613 39.6713 37.6472 40.0654 38.3781C40.2339 38.6905 40.4057 38.9982 40.5791 39.302C40.7448 38.9979 40.9064 38.6909 41.0576 38.3781C41.4109 37.6472 41.8634 36.8567 42.416 36.0168L44.5498 32.7522H47.6436L42.0342 41.0813L47.9111 49.5735H44.7715L42.3076 45.7961C41.7777 44.9744 41.3196 44.2068 40.9346 43.5031C40.7803 43.2194 40.6231 42.9413 40.4648 42.6672C40.3149 42.9413 40.169 43.2194 40.0293 43.5031C39.6805 44.2114 39.2314 44.9744 38.6924 45.7961L36.2012 49.5735H33.0801L33.0713 49.5783L38.9805 40.9455L33.4199 32.7522H36.5732L38.6611 36.0168ZM97.8965 34.9592C96.8864 34.9592 96.021 35.2085 95.3008 35.7033C94.5806 36.1982 94.0279 36.8477 93.6475 37.6467C93.3244 38.3252 93.1405 39.0432 93.0918 39.8029H102.454C102.387 39.0373 102.227 38.3378 101.974 37.7053C101.629 36.8474 101.113 36.1754 100.434 35.6897C99.7541 35.2039 98.9066 34.9592 97.8965 34.9592ZM23.9756 34.9592C22.9655 34.9592 22.1001 35.2085 21.3799 35.7033C20.6597 36.1982 20.107 36.8477 19.7266 37.6467C19.4035 38.3252 19.2196 39.0432 19.1709 39.8029H28.5332C28.4665 39.0373 28.3065 38.3378 28.0527 37.7053C27.7085 36.8474 27.192 36.1754 26.5127 35.6897C25.8332 35.2039 24.9857 34.9592 23.9756 34.9592ZM60.0957 6.12424C61.4954 6.12424 62.7324 6.47423 63.7969 7.17795C64.8613 7.88167 65.6993 8.88049 66.3018 10.1789C66.9087 11.4774 67.208 13.017 67.208 14.7922C67.208 16.567 66.9089 18.1241 66.3066 19.427C65.7042 20.73 64.8702 21.7386 63.8057 22.4514C62.7414 23.164 61.5048 23.5177 60.1055 23.5178C59.0458 23.5178 58.1893 23.3365 57.5371 22.969C56.8848 22.6012 56.3859 22.1876 56.0371 21.7199C55.6884 21.2524 55.4168 20.8662 55.2266 20.5529H55.0186V28.7571H52.3184V6.33322H54.9316V9.02561H55.2314C55.4217 8.72601 55.6842 8.34468 56.0283 7.89084C56.368 7.43239 56.857 7.02386 57.5 6.66525C58.1386 6.30207 59.0041 6.12426 60.0957 6.12424ZM41.2842 6.12033C41.8458 6.12036 42.4846 6.18826 43.2002 6.32443C43.9158 6.46065 44.6047 6.72866 45.2705 7.12815C45.9362 7.52767 46.4845 8.12251 46.9238 8.91232C47.3586 9.69766 47.5752 10.7509 47.5752 12.0627V23.1545H44.917V20.8664H44.7354C44.5451 21.2568 44.2415 21.6607 43.8203 22.0783C43.3991 22.496 42.8559 22.8463 42.1855 23.1233C41.5152 23.4047 40.7041 23.5451 39.7529 23.5451V23.55C38.6931 23.55 37.7284 23.3495 36.8633 22.9455C35.9981 22.546 35.3087 21.9556 34.7969 21.1838C34.2852 20.4121 34.0322 19.4724 34.0322 18.3694C34.0322 17.4069 34.222 16.6255 34.6025 16.0217C34.983 15.4181 35.4901 14.9458 36.124 14.6008C36.7582 14.2558 37.4608 13.997 38.2354 13.8244C39.0054 13.6519 39.7799 13.52 40.5635 13.4201C41.5645 13.2885 42.3801 13.1894 43.0098 13.1213C43.6394 13.0532 44.106 12.9305 44.4141 12.758C44.7176 12.5855 44.8711 12.2946 44.8711 11.886V11.7951C44.8711 11.0915 44.7396 10.4967 44.4814 10.011C44.2233 9.52528 43.8294 9.15316 43.3086 8.88986C42.7877 8.62655 42.14 8.49925 41.3564 8.49924C40.5728 8.49924 39.8706 8.62648 39.2998 8.87619C38.7291 9.12588 38.267 9.43886 37.9092 9.81565C37.5559 10.1925 37.2841 10.574 37.1074 10.969L34.5117 10.1106C34.942 9.08924 35.5219 8.28575 36.251 7.7092C36.9802 7.13268 37.7868 6.72425 38.6699 6.48361C39.5487 6.24299 40.4235 6.12033 41.2842 6.12033ZM103.6 6.12424C104.41 6.12427 105.175 6.22929 105.896 6.4426C106.616 6.65144 107.273 6.95581 107.871 7.3508C108.464 7.74575 108.981 8.2317 109.411 8.81272C109.841 9.39377 110.172 10.0428 110.403 10.7737L107.808 11.509C107.685 11.0777 107.504 10.6827 107.25 10.3196C107.001 9.95648 106.698 9.64335 106.34 9.3801C105.987 9.11234 105.579 8.90818 105.117 8.76291C104.655 8.61766 104.152 8.54419 103.6 8.54416C102.481 8.54416 101.556 8.83936 100.836 9.42502C100.116 10.0107 99.5818 10.7831 99.2285 11.7365C98.8798 12.6899 98.7021 13.7294 98.7021 14.8508C98.7022 15.9722 98.8797 16.9801 99.2285 17.9289C99.5773 18.8777 100.111 19.6408 100.836 20.2219C101.561 20.803 102.476 21.093 103.6 21.093C104.161 21.093 104.673 21.0162 105.144 20.8664C105.615 20.7166 106.032 20.5027 106.398 20.2258C106.765 19.949 107.073 19.6226 107.322 19.2414C107.571 18.8601 107.758 18.4419 107.88 17.9924L110.462 18.7278C110.24 19.4814 109.913 20.1489 109.479 20.7346C109.044 21.3202 108.527 21.8244 107.925 22.2375C107.322 22.6551 106.657 22.9688 105.928 23.1867C105.199 23.4001 104.424 23.509 103.6 23.509V23.5178C102.078 23.5178 100.746 23.1547 99.5996 22.4328C98.4537 21.711 97.5615 20.6985 96.9229 19.3957C96.2842 18.0927 95.9619 16.576 95.9619 14.8508C95.9619 13.1256 96.2842 11.5636 96.9229 10.2561C97.5615 8.94868 98.4582 7.93201 99.5996 7.21018C100.746 6.4883 102.078 6.12424 103.6 6.12424ZM9.8291 0.435762C11.0113 0.435762 12.1124 0.612589 13.1406 0.962129C14.1642 1.31168 15.0838 1.81593 15.8945 2.46506C16.7054 3.1143 17.3805 3.89131 17.915 4.79025C18.4495 5.68912 18.8167 6.67892 19.0205 7.76389H16.0762C15.8452 7.04216 15.5415 6.39284 15.1611 5.82541C14.7806 5.25789 14.3272 4.76298 13.8018 4.34982C13.2763 3.93668 12.6828 3.62278 12.0215 3.4094C11.3603 3.1961 10.6353 3.08713 9.84277 3.08713C8.52931 3.08719 7.34297 3.42832 6.26953 4.10471C5.20051 4.78119 4.34838 5.77962 3.71875 7.1008C3.08915 8.42196 2.77246 10.043 2.77246 11.968C2.77249 13.8928 3.08957 15.4815 3.72363 16.7981C4.3578 18.1102 5.22279 19.1096 6.31445 19.7951C7.40601 20.4761 8.63805 20.8166 10.0059 20.8166C11.265 20.8166 12.3796 20.5486 13.3398 20.0129C14.3001 19.4772 15.0475 18.7145 15.582 17.7248C16.0948 16.7754 16.359 15.6669 16.3799 14.3879H10.5908V11.8908H19.1787V14.342C19.1787 16.1989 18.7849 17.8065 17.9922 19.1731C17.1995 20.5351 16.1163 21.5929 14.7393 22.342C13.3624 23.0909 11.7864 23.4631 10.002 23.4631L10.0107 23.4592C8.01766 23.4592 6.2734 22.9915 4.76953 22.0608C3.27022 21.13 2.0974 19.799 1.25488 18.0783C0.41245 16.3577 0 14.3193 0 11.9631C1.40875e-05 9.60683 0.420803 7.53633 1.25879 5.81565C2.10126 4.09506 3.26112 2.76945 4.74219 1.8342C6.2233 0.903541 7.91772 0.43583 9.8291 0.435762ZM31.3369 6.10666C31.6132 6.11574 31.8307 6.12429 31.9893 6.13791V8.86252C31.9077 8.84436 31.7082 8.81255 31.3867 8.7717C31.0651 8.73084 30.725 8.71213 30.3672 8.71213C29.5655 8.71216 28.8496 8.8801 28.2109 9.21604C27.577 9.55192 27.0791 10.0154 26.7168 10.6008C26.3544 11.1865 26.1777 11.8635 26.1777 12.6262V23.1594H23.4775V6.33322H26.0918V8.92111H26.2725C26.5805 8.06764 27.1335 7.38236 27.9307 6.86936C28.7279 6.35182 29.6249 6.09299 30.626 6.09299C30.8252 6.09299 31.0653 6.09759 31.3369 6.10666ZM73.8438 9.24143C74.301 8.29014 74.8719 7.57639 75.5605 7.1008C76.5071 6.44717 77.6121 6.12429 78.8848 6.12424C80.017 6.12424 81.0092 6.35601 81.8652 6.82346C82.7214 7.29109 83.3877 7.99107 83.8633 8.93088C84.3388 9.87064 84.5742 11.051 84.5742 12.4719V23.1545H81.8564V12.6985C81.8564 11.4047 81.5167 10.3922 80.8418 9.66135C80.1669 8.93047 79.2425 8.56272 78.0693 8.56272C77.2678 8.56278 76.5477 8.73963 75.9092 9.08908C75.2705 9.43867 74.763 9.9523 74.3916 10.6242C74.0203 11.2961 73.834 12.1131 73.834 13.0754H73.8438V23.1545H71.1436V0.735567H73.8438V9.24143ZM92.0215 23.1545H89.3213V6.33322H92.0215V23.1545ZM44.8672 14.7512C44.7585 14.8828 44.5179 15.0003 44.1465 15.1047C43.7751 15.2091 43.3535 15.3049 42.8779 15.3821C42.4026 15.4637 41.9408 15.5317 41.4971 15.5862C41.0532 15.6406 40.6992 15.6859 40.4365 15.7131C39.7844 15.7948 39.1774 15.931 38.6113 16.1262C38.0451 16.3214 37.5917 16.6078 37.252 16.9846C36.9124 17.3614 36.7403 17.87 36.7402 18.51C36.7402 19.091 36.89 19.5769 37.1934 19.9719C37.4923 20.3623 37.9049 20.6572 38.4258 20.8615C38.9466 21.0613 39.5397 21.1613 40.21 21.1613L40.2148 21.1574C41.2159 21.1574 42.0634 20.962 42.752 20.5715C43.4403 20.1811 43.9658 19.6725 44.3281 19.0461C44.6905 18.4196 44.8672 17.7652 44.8672 17.0842V14.7512ZM59.7021 8.54904C58.6422 8.54904 57.804 8.80818 57.1064 9.33029C56.4044 9.8524 55.8783 10.5789 55.5205 11.5051C55.1673 12.4312 54.9863 13.5211 54.9863 14.7649C54.9864 16.0087 55.1676 17.1074 55.5254 18.0608C55.8832 19.014 56.4176 19.7585 57.124 20.2942C57.8306 20.8299 58.6872 21.0979 59.6973 21.0979L59.7021 21.093C60.7529 21.0929 61.6313 20.8118 62.3379 20.2444C63.0445 19.6769 63.5744 18.9142 63.9277 17.9563C64.2811 16.9983 64.4629 15.9313 64.4629 14.76C64.4629 13.5889 64.2862 12.5447 63.9375 11.6096C63.5887 10.6698 63.0582 9.92457 62.3516 9.37522C61.645 8.82601 60.7619 8.5491 59.7021 8.54904ZM90.6855 0.00412162C91.1972 0.00420242 91.6502 0.176852 92.0215 0.5217C92.3929 0.866709 92.5791 1.29384 92.5791 1.79318C92.5791 2.2926 92.3929 2.70629 92.0215 3.05588C91.6502 3.40528 91.2062 3.58217 90.6855 3.58225C90.1737 3.58225 89.7337 3.40542 89.3623 3.05588C88.9909 2.70629 88.8057 2.28352 88.8057 1.79318C88.8057 1.30292 88.9909 0.866709 89.3623 0.5217C89.7337 0.176713 90.1737 0.00412162 90.6855 0.00412162Z" fill="var(--fill-0, #F5F5F5)"/>
<g id="Group">
<path id="Vector" d="M120.011 47.0131V34.2371C120.985 34.0782 122.09 33.8104 123.327 33.4381C124.685 33.0113 125.75 32.639 126.524 32.3167L126.946 33.3563C126.013 33.7559 125.034 34.11 124.01 34.4187C122.892 34.7683 121.94 35.018 121.152 35.1815V46.6998L126.361 44.8519L126.692 45.9552L119.639 48.5749L119.268 47.3808L120.015 47.0221L120.011 47.0131ZM120.591 39.2585H126.746V40.4208H120.591V39.2585ZM135.158 45.4694C135.158 45.9234 135.113 46.2821 135.018 46.5409C134.923 46.7997 134.764 46.9949 134.538 47.122C134.311 47.2491 133.985 47.3399 133.559 47.3944C132.522 47.4761 131.62 47.5034 130.859 47.4761L130.637 46.2321C131.398 46.2866 133.5 46.2276 133.654 46.1913C133.935 46.1277 134.012 45.9688 134.012 45.0699V34.8954H129.016V49.9414H127.897V33.7513H135.149V45.4694H135.158Z" fill="var(--fill-0, #F5F5F5)"/>
<path id="Vector_2" d="M146.6 43.7215C147.76 42.995 148.892 42.1279 149.993 41.12C150.559 40.6115 151.089 40.0984 151.592 39.5763C152.09 39.0587 152.607 38.464 153.132 37.8011L154.065 38.4776C153.019 39.7806 151.85 41.0065 150.559 42.1551C149.517 43.1176 148.417 43.9712 147.253 44.7112L146.6 43.7169V43.7215ZM147.755 34.2417H165V35.3041H147.755V34.2417ZM150.89 40.5661L152.009 39.4855V49.9414H150.89V40.5661ZM152.629 45.3695C154.736 44.4206 156.779 43.3083 158.763 42.0234C160.747 40.7431 162.386 39.5082 163.677 38.3187L164.398 39.1813C163.012 40.4616 161.286 41.7647 159.22 43.0858C157.141 44.4206 155.116 45.5375 153.146 46.4319L152.625 45.3695H152.629ZM152.253 32.2939H153.331V36.9839H152.253V32.2939ZM156.887 37.7376L158.006 37.6785V47.1538C158.006 47.5533 158.042 47.853 158.115 48.0573C158.187 48.257 158.319 48.4023 158.504 48.4886C158.69 48.5749 158.976 48.6339 159.365 48.6566C159.859 48.6838 160.479 48.6838 161.222 48.6566C161.861 48.643 162.328 48.6021 162.622 48.5385C162.916 48.4704 163.125 48.3433 163.252 48.1481C163.378 47.9529 163.469 47.6305 163.523 47.1765C163.605 46.3366 163.65 45.7464 163.664 45.4149L164.783 45.6964C164.742 46.3502 164.683 46.9586 164.601 47.517C164.52 48.1844 164.389 48.6657 164.203 48.9608C164.017 49.2559 163.714 49.4602 163.292 49.5828C162.871 49.7053 162.219 49.7689 161.322 49.7825C160.987 49.7962 160.633 49.8007 160.253 49.8007C159.872 49.8007 159.524 49.7962 159.202 49.7825C158.536 49.7417 158.042 49.6554 157.725 49.5237C157.404 49.3921 157.186 49.1696 157.064 48.8609C156.946 48.5522 156.883 48.0936 156.883 47.4807V37.7466L156.887 37.7376ZM159.238 32.2758H160.339V37.0066H159.238V32.2758Z" fill="var(--fill-0, #F5F5F5)"/>
<path id="Vector_3" d="M142.909 36.0623H141.649V46.155H142.909V36.0623Z" fill="var(--fill-0, #F5F5F5)"/>
</g>
</g>
<defs>
<clipPath id="clip0_0_16">
<rect width="165" height="50" fill="white"/>
</clipPath>
</defs>
</svg>
