<svg preserveAspectRatio="xMidYMid meet" width="100%" height="100%" overflow="visible" style="display: block;" viewBox="0 0 28 28" fill="none" xmlns="http://www.w3.org/2000/svg">
<g id="uuid-4e52f8c1-c090-4544-b184-a03313552302" clip-path="url(#clip0_0_4)">
<path id="Vector" d="M3.00118 27.1865C4.21547 27.1865 5.19984 26.2021 5.19984 24.9878C5.19984 23.7735 4.21547 22.7892 3.00118 22.7892C1.78689 22.7892 0.802513 23.7735 0.802513 24.9878C0.802513 26.2021 1.78689 27.1865 3.00118 27.1865Z" fill="var(--fill-0, white)"/>
<path id="Vector_2" d="M8.49784 22.2395C10.0157 22.2395 11.2462 21.009 11.2462 19.4912C11.2462 17.9733 10.0157 16.7428 8.49784 16.7428C6.97998 16.7428 5.74951 17.9733 5.74951 19.4912C5.74951 21.009 6.97998 22.2395 8.49784 22.2395Z" fill="var(--fill-0, white)"/>
<path id="Vector_3" d="M19.4912 11.2462C21.009 11.2462 22.2395 10.0157 22.2395 8.49784C22.2395 6.97998 21.009 5.74951 19.4912 5.74951C17.9733 5.74951 16.7428 6.97998 16.7428 8.49784C16.7428 10.0157 17.9733 11.2462 19.4912 11.2462Z" fill="var(--fill-0, white)"/>
<path id="Vector_4" d="M24.9878 5.19984C26.2021 5.19984 27.1865 4.21547 27.1865 3.00118C27.1865 1.78689 26.2021 0.802513 24.9878 0.802513C23.7735 0.802513 22.7892 1.78689 22.7892 3.00118C22.7892 4.21547 23.7735 5.19984 24.9878 5.19984Z" fill="var(--fill-0, white)"/>
<path id="Vector_5" d="M3.00118 5.19984C4.21547 5.19984 5.19984 4.21547 5.19984 3.00118C5.19984 1.78689 4.21547 0.802513 3.00118 0.802513C1.78689 0.802513 0.802513 1.78689 0.802513 3.00118C0.802513 4.21547 1.78689 5.19984 3.00118 5.19984Z" fill="var(--fill-0, white)"/>
<path id="Vector_6" d="M8.49784 11.2462C10.0157 11.2462 11.2462 10.0157 11.2462 8.49784C11.2462 6.97998 10.0157 5.74951 8.49784 5.74951C6.97998 5.74951 5.74951 6.97998 5.74951 8.49784C5.74951 10.0157 6.97998 11.2462 8.49784 11.2462Z" fill="var(--fill-0, white)"/>
<path id="Vector_7" d="M19.4912 22.2395C21.009 22.2395 22.2395 21.009 22.2395 19.4912C22.2395 17.9733 21.009 16.7428 19.4912 16.7428C17.9733 16.7428 16.7428 17.9733 16.7428 19.4912C16.7428 21.009 17.9733 22.2395 19.4912 22.2395Z" fill="var(--fill-0, white)"/>
<path id="Vector_8" d="M24.9878 27.1865C26.2021 27.1865 27.1865 26.2021 27.1865 24.9878C27.1865 23.7735 26.2021 22.7892 24.9878 22.7892C23.7735 22.7892 22.7892 23.7735 22.7892 24.9878C22.7892 26.2021 23.7735 27.1865 24.9878 27.1865Z" fill="var(--fill-0, white)"/>
<path id="Vector_9" d="M3.298 17.2925C5.11943 17.2925 6.596 15.8159 6.596 13.9945C6.596 12.1731 5.11943 10.6965 3.298 10.6965C1.47656 10.6965 0 12.1731 0 13.9945C0 15.8159 1.47656 17.2925 3.298 17.2925Z" fill="var(--fill-0, white)"/>
<path id="Vector_10" d="M27.0326 16.3251C28.3188 15.0389 28.3188 12.9501 27.0326 11.6639C25.7464 10.3777 23.6576 10.3777 22.3714 11.6639C21.0852 12.9501 21.0852 15.0389 22.3714 16.3251C23.6576 17.6113 25.7464 17.6113 27.0326 16.3251Z" fill="var(--fill-0, white)"/>
<path id="Vector_11" d="M16.3251 5.62858C17.6113 4.34236 17.6113 2.25363 16.3251 0.967413C15.0389 -0.318806 12.9501 -0.318806 11.6639 0.967413C10.3777 2.25363 10.3777 4.34236 11.6639 5.62858C12.9501 6.9148 15.0389 6.9148 16.3251 5.62858Z" fill="var(--fill-0, white)"/>
<path id="Vector_12" d="M17.0397 12.7413C16.9957 12.6313 16.9297 12.5324 16.8748 12.4335C16.8308 12.3455 16.7868 12.2576 16.7318 12.1806C16.49 11.8178 16.1822 11.51 15.8194 11.2682C15.7424 11.2132 15.6545 11.1802 15.5665 11.1252C15.4676 11.0703 15.3687 11.0043 15.2587 10.9603C15.1488 10.9164 15.0389 10.8944 14.9289 10.8614C14.83 10.8284 14.742 10.7954 14.6431 10.7735C14.4342 10.7295 14.2254 10.7075 14.0055 10.7075C14.0055 10.7075 14.0055 10.7075 13.9945 10.7075C13.9945 10.7075 13.9945 10.7075 13.9835 10.7075C13.7746 10.7075 13.5658 10.7295 13.3569 10.7735C13.258 10.7954 13.17 10.8284 13.0711 10.8614C12.9611 10.8944 12.8512 10.9164 12.7413 10.9603C12.6313 11.0043 12.5324 11.0703 12.4225 11.1252C12.3345 11.1692 12.2466 11.2132 12.1696 11.2572C11.8068 11.499 11.499 11.8068 11.2572 12.1696C11.2022 12.2466 11.1692 12.3345 11.1252 12.4225C11.0703 12.5324 11.0043 12.6313 10.9603 12.7413C10.9164 12.8512 10.8944 12.9611 10.8614 13.0711C10.8284 13.17 10.7954 13.258 10.7735 13.3569C10.7295 13.5658 10.7075 13.7746 10.7075 13.9835C10.7075 13.9835 10.7075 13.9835 10.7075 13.9945C10.7075 14.0055 10.7075 13.9945 10.7075 14.0055C10.7075 14.2144 10.7295 14.4342 10.7735 14.6431C10.7954 14.742 10.8284 14.83 10.8614 14.9289C10.8944 15.0389 10.9164 15.1488 10.9603 15.2587C11.0043 15.3687 11.0703 15.4676 11.1252 15.5775C11.1692 15.6655 11.2132 15.7534 11.2572 15.8304C11.499 16.1932 11.8068 16.501 12.1696 16.7428C12.2466 16.7978 12.3345 16.8308 12.4225 16.8857C12.5214 16.9407 12.6203 17.0067 12.7303 17.0506C12.8402 17.0946 12.9501 17.1166 13.0711 17.1496C13.159 17.1826 13.258 17.2155 13.3459 17.2375C13.5548 17.2815 13.7746 17.3035 13.9945 17.3035C14.2144 17.3035 14.4232 17.2815 14.6431 17.2375C14.742 17.2155 14.83 17.1826 14.9179 17.1606C15.0279 17.1276 15.1488 17.1056 15.2587 17.0506C15.3687 17.0067 15.4676 16.9407 15.5665 16.8857C15.6545 16.8418 15.7424 16.7978 15.8194 16.7428C16.1822 16.501 16.49 16.1932 16.7318 15.8304C16.7868 15.7534 16.8198 15.6545 16.8748 15.5775C16.9297 15.4786 16.9957 15.3797 17.0397 15.2697C17.0836 15.1598 17.1166 15.0499 17.1496 14.9289C17.1716 14.841 17.2155 14.742 17.2375 14.6541C17.3255 14.2254 17.3255 13.7856 17.2375 13.3569C17.2155 13.258 17.1826 13.17 17.1496 13.0821C17.1166 12.9721 17.0946 12.8512 17.0506 12.7413H17.0397Z" fill="var(--fill-0, white)"/>
<path id="Vector_13" d="M11.6639 22.3604C10.3777 23.6466 10.3777 25.7354 11.6639 27.0216C12.9501 28.3078 15.0389 28.3078 16.3251 27.0216C17.6113 25.7354 17.6113 23.6466 16.3251 22.3604C15.0389 21.0742 12.9501 21.0742 11.6639 22.3604Z" fill="var(--fill-0, white)"/>
</g>
<defs>
<clipPath id="clip0_0_4">
<rect width="28" height="28" fill="white"/>
</clipPath>
</defs>
</svg>
