<svg preserveAspectRatio="xMidYMid meet" width="100%" height="100%" overflow="visible" style="display: block;" viewBox="0 0 28 28" fill="none" xmlns="http://www.w3.org/2000/svg">
<g id="uuid-5ceaf245-0ae0-4b6b-9f07-7dde852cba21" clip-path="url(#clip0_0_4)">
<path id="Vector" d="M8.54266 26.353V23.2236H4.1505V19.4573H1.64697V8.54278H4.16148V4.77651H8.55364V1.64709H19.4572V4.77651H23.8493V8.54278H26.3638V19.4463H23.8493V23.2126H19.4572V26.342H8.54266V26.353ZM6.8956 19.8416H12.3089V14.4283H6.8956V19.8416ZM13.8023 15.4494H21.0932V8.15847H13.8023V15.4494Z" fill="var(--fill-0, white)"/>
<path id="Vector_2" d="M18.6337 2.47055V5.59996H23.0258V9.36623H25.5404V18.6227H23.0258V22.389H18.6337V25.5184H9.37721V22.389H4.98506V18.6227H2.47055V9.36623H4.98506V5.59996H9.37721V2.47055H18.6337ZM12.9788 13.6047H6.07211V20.6651H13.1325V16.2729H21.9168V7.33486H12.9788V13.6156M20.2807 0.823486H7.71917V3.9529H3.32702V7.71917H0.823486V20.2698H3.338V24.036H7.73015V27.1654H20.2807V24.036H24.6729V20.2698H27.1874V7.71917H24.6729V3.9529H20.2807V0.823486ZM14.6258 14.6258V8.98192H20.2698V14.6258H14.6258ZM7.71917 19.018V15.2517H11.4854V19.018H7.71917Z" fill="var(--fill-0, white)"/>
</g>
<defs>
<clipPath id="clip0_0_4">
<rect width="28" height="28" fill="white"/>
</clipPath>
</defs>
</svg>
