<svg preserveAspectRatio="xMidYMid meet" width="100%" height="100%" overflow="visible" style="display: block;" viewBox="0 0 28 28" fill="none" xmlns="http://www.w3.org/2000/svg">
<g id="uuid-8f4dba56-fbb4-44b5-91f9-441d0d3065a6" clip-path="url(#clip0_0_4)">
<path id="Vector" d="M24.77 28C22.99 28 21.54 26.55 21.54 24.77V24.65C21.58 23.88 21.2 23.16 20.55 22.74C20.2 22.51 19.79 22.4 19.39 22.4C19.05 22.4 18.72 22.48 18.41 22.64C17.04 23.34 15.56 23.7 14.01 23.7C12.46 23.7 10.98 23.34 9.61 22.64C9.3 22.48 8.96 22.4 8.63 22.4C8.23 22.4 7.82 22.51 7.47 22.74C6.82 23.15 6.45 23.88 6.48 24.65V24.77C6.48 26.55 5.03 28 3.25 28C1.47 28 0.02 26.55 0.02 24.77C0.02 22.99 1.47 21.54 3.25 21.54C3.25 21.54 3.44 21.54 3.47 21.54C4.2 21.54 4.89 21.17 5.29 20.54C5.7 19.89 5.74 19.08 5.39 18.4C4.69 17.03 4.33 15.55 4.33 14C4.33 12.45 4.69 10.97 5.39 9.6C5.74 8.92 5.7 8.11 5.29 7.46C4.89 6.84 4.21 6.46 3.47 6.46C3.44 6.46 3.25 6.46 3.25 6.46C1.47 6.46 0.02 5.01 0.02 3.23C0.02 1.45 1.45 0 3.23 0C5.01 0 6.46 1.45 6.46 3.23V3.35C6.42 4.12 6.8 4.84 7.45 5.26C7.8 5.49 8.21 5.6 8.61 5.6C8.95 5.6 9.28 5.52 9.59 5.36C10.96 4.66 12.44 4.3 13.99 4.3C15.54 4.3 17.02 4.66 18.39 5.36C18.7 5.52 19.04 5.6 19.37 5.6C19.77 5.6 20.18 5.49 20.53 5.26C21.18 4.85 21.55 4.12 21.52 3.35V3.23C21.52 1.45 22.97 0 24.75 0C26.53 0 27.98 1.45 27.98 3.23C27.98 5.01 26.53 6.46 24.75 6.46C24.75 6.46 24.56 6.46 24.53 6.46C23.8 6.46 23.11 6.83 22.71 7.46C22.3 8.11 22.26 8.92 22.61 9.6C23.31 10.97 23.67 12.45 23.67 14C23.67 15.55 23.31 17.03 22.61 18.4C22.26 19.08 22.3 19.89 22.71 20.54C23.11 21.16 23.79 21.54 24.53 21.54C24.56 21.54 24.75 21.54 24.75 21.54C26.53 21.54 27.98 22.99 27.98 24.77C27.98 26.55 26.53 28 24.75 28H24.77Z" fill="var(--fill-0, white)"/>
</g>
<defs>
<clipPath id="clip0_0_4">
<rect width="28" height="28" fill="white"/>
</clipPath>
</defs>
</svg>
