<svg preserveAspectRatio="none" width="100%" height="100%" overflow="visible" style="display: block;" viewBox="0 0 300.009 88.0029" fill="none" xmlns="http://www.w3.org/2000/svg">
<path id="icon" d="M85.4824 44.7744C89.0358 44.7744 92.0517 46.0912 94.5273 48.7246C96.983 51.3581 98.2119 55.2256 98.2119 60.3232C98.2119 65.7019 97.0056 69.8012 94.5957 72.6211C92.1858 75.4408 89.0814 76.8525 85.2852 76.8525C82.8667 76.8525 80.8539 76.2437 79.2559 75.0303C78.3812 74.359 77.526 73.3778 76.6885 72.0898V88.0029H68.8154V45.4482H76.4375V49.958C77.2921 48.633 78.2039 47.5862 79.1729 46.8203C80.9396 45.4577 83.0439 44.7744 85.4824 44.7744ZM251.173 44.4678C256.404 44.4678 260.3 46.0827 262.87 49.3125C265.437 52.5426 266.725 56.3642 266.725 60.7705C266.725 65.1767 265.44 69.0863 262.87 72.2705C260.303 75.4547 256.404 77.0468 251.173 77.0469C245.941 77.0469 242.045 75.4548 239.475 72.2705C236.908 69.0863 235.621 65.2541 235.621 60.7705C235.621 56.2867 236.905 52.5426 239.475 49.3125C242.042 46.0825 245.941 44.4678 251.173 44.4678ZM169.678 44.5791C173.68 44.5791 176.573 45.3369 178.975 46.8486H178.978C181.359 48.3805 182.729 51.014 183.083 54.749H175.127C175.015 53.722 174.727 52.9101 174.261 52.3105C173.386 51.2291 171.896 50.6865 169.795 50.6865C168.066 50.6866 166.83 50.9598 166.096 51.499C165.361 52.0411 164.993 52.6749 164.993 53.4033C164.993 54.3184 165.385 54.9814 166.165 55.3916C166.946 55.8219 169.71 56.5594 174.455 57.6035C177.62 58.3522 179.992 59.4795 181.573 60.9941C183.137 62.526 183.918 64.4395 183.918 66.7373C183.918 69.7638 182.797 72.2341 180.553 74.1475C178.309 76.0607 174.843 77.0186 170.152 77.0186C165.461 77.0185 161.837 76.0056 159.559 73.9775C157.277 71.9523 156.14 69.3707 156.14 66.2324H164.207C164.376 67.6524 164.738 68.6592 165.296 69.2588C166.282 70.323 168.106 70.8564 170.768 70.8564C172.331 70.8564 173.572 70.6247 174.495 70.1572C175.416 69.6896 175.876 68.989 175.876 68.0566C175.876 67.1244 175.504 66.4793 174.758 66.0117C174.014 65.5441 171.25 64.7403 166.468 63.6016C163.026 62.7438 160.596 61.6679 159.181 60.3799C157.766 59.1091 157.06 57.2791 157.06 54.8896C157.06 52.0697 158.163 49.6454 160.367 47.6201C162.571 45.5949 165.676 44.5792 169.678 44.5791ZM201.476 44.5791C205.478 44.5791 208.371 45.3369 210.772 46.8486H210.775C213.157 48.3805 214.526 51.014 214.881 54.749H206.925C206.813 53.722 206.525 52.9101 206.059 52.3105C205.184 51.2291 203.694 50.6865 201.593 50.6865C199.863 50.6866 198.628 50.9598 197.894 51.499C197.159 52.0411 196.791 52.6749 196.791 53.4033C196.791 54.3184 197.182 54.9814 197.963 55.3916C198.744 55.8219 201.508 56.5594 206.253 57.6035C209.417 58.3522 211.79 59.4795 213.371 60.9941C214.935 62.526 215.716 64.4395 215.716 66.7373C215.716 69.7638 214.595 72.2341 212.351 74.1475C210.106 76.0607 206.641 77.0186 201.95 77.0186C197.259 77.0185 193.635 76.0056 191.356 73.9775C189.075 71.9523 187.938 69.3707 187.938 66.2324H196.005C196.174 67.6524 196.536 68.6592 197.094 69.2588C198.08 70.323 199.904 70.8564 202.565 70.8564C204.129 70.8564 205.37 70.6247 206.293 70.1572C207.213 69.6896 207.674 68.989 207.674 68.0566C207.674 67.1244 207.302 66.4793 206.556 66.0117C205.812 65.5441 203.048 64.7403 198.266 63.6016C194.824 62.7438 192.394 61.6679 190.979 60.3799C189.564 59.1091 188.857 57.2791 188.857 54.8896C188.857 52.0697 189.961 49.6454 192.165 47.6201C194.369 45.5949 197.474 44.5792 201.476 44.5791ZM138.221 44.6338C140.751 44.6338 143.032 45.1101 145.062 46.0625C147.091 47.0149 148.766 48.5183 150.087 50.5723C151.279 52.3853 152.051 54.4854 152.405 56.875C152.611 58.2749 152.694 60.2915 152.657 62.9248H131.831C131.943 65.9886 132.9 68.1346 134.707 69.3682C135.805 70.134 137.125 70.5156 138.672 70.5156C140.31 70.5156 141.64 70.0476 142.663 69.1152C143.22 68.6104 143.715 67.9105 144.144 67.0156H152.269L152.263 67.0186C152.057 68.8315 151.12 70.6706 149.444 72.5381C146.837 75.5071 143.189 76.9931 138.501 76.9932C134.63 76.9932 131.214 75.7417 128.255 73.2373C125.296 70.7358 123.815 66.6622 123.815 61.0225C123.815 55.7385 125.15 51.6851 127.82 48.8652C130.49 46.0453 133.958 44.6338 138.221 44.6338ZM120.49 44.7197C120.639 44.7197 120.765 44.7258 120.868 44.7344C120.971 44.743 121.2 44.7573 121.551 44.7773V52.959C121.048 52.9016 120.602 52.8668 120.21 52.8467C119.819 52.8295 119.505 52.8184 119.262 52.8184L119.264 52.8154C116.062 52.8155 113.912 53.8629 112.814 55.9541C112.2 57.1302 111.895 58.9431 111.895 61.3896V75.9863H103.881V45.4482H111.474V50.7705C112.703 48.7366 113.773 47.3416 114.685 46.5957C116.174 45.3452 118.109 44.7198 120.49 44.7197ZM30.1797 42.001H8.40234V50.7705H28.3906V57.9414H8.40234V68.5586H31.1836V75.9834H0V34.6885H30.1797V42.001ZM49.5225 54.3564L54.4902 45.5029H63.9561L53.9619 60.3799L64.3477 75.9834H54.4395L49.1904 66.8232L43.9131 75.9834H34.2539L44.6396 60.5176L34.6992 45.5029H44.4424L49.5225 54.3564ZM229.789 75.9834H221.722V45.4463H229.789V75.9834ZM289.288 44.7168C292.433 44.7168 295.006 45.5431 297.007 47.1953C299.008 48.8476 300.009 51.5904 300.009 55.417V75.9805H291.855V57.4053C291.855 55.799 291.641 54.5686 291.212 53.708C290.432 52.1389 288.942 51.3555 286.747 51.3555L286.741 51.3584C284.043 51.3584 282.19 52.5059 281.187 54.8037C280.666 56.0171 280.406 57.5695 280.406 59.4541V75.9834H272.479V45.5029H280.157V49.958C281.181 48.389 282.15 47.2587 283.062 46.5674C284.7 45.3339 286.775 44.7168 289.288 44.7168ZM251.146 51.2178C248.82 51.2179 247.03 52.044 245.772 53.6963C244.515 55.3487 243.889 57.7068 243.889 60.7705C243.889 63.8342 244.517 66.1956 245.772 67.8594C247.027 69.5229 248.82 70.3515 251.146 70.3516C253.473 70.3516 255.26 69.5201 256.507 67.8594C257.753 66.1984 258.377 63.8342 258.377 60.7705C258.377 57.7067 257.753 55.3487 256.507 53.6963C255.26 52.0439 253.474 51.2178 251.146 51.2178ZM83.1924 51.751C80.3079 51.751 78.3238 53.1258 77.2461 55.8711C76.6887 57.3283 76.4082 59.1759 76.4082 61.4189C76.4082 64.9674 77.3494 67.4603 79.2275 68.8975C80.3453 69.7379 81.6659 70.1572 83.1924 70.1572C85.4077 70.1572 87.0972 69.2991 88.2578 67.5811C89.4213 65.8627 90.002 63.5759 90.002 60.7158H90.0049C90.0049 58.3635 89.4705 56.2808 88.3984 54.4678C87.3293 52.6576 85.5937 51.751 83.1924 51.751ZM138.221 51.2178C136.377 51.2178 134.95 51.7972 133.936 52.9531C132.921 54.1121 132.283 55.6817 132.022 57.6611H144.39C144.258 55.5498 143.621 53.9484 142.478 52.8555C141.334 51.7625 139.913 51.2178 138.221 51.2178ZM229.789 41.8027H221.722V34.4355H229.789V41.8027ZM141.38 17.8662L145.413 5.64551H148.194C147.84 6.60654 147.054 8.80439 145.836 12.2324C144.924 14.8111 144.16 16.9135 143.546 18.5371C142.097 22.3639 141.073 24.6966 140.479 25.5371C139.884 26.3775 138.86 26.7969 137.411 26.7969C137.057 26.7969 136.785 26.7826 136.597 26.7539C136.405 26.7252 136.171 26.6732 135.894 26.5986V24.3008C136.331 24.4213 136.645 24.4957 136.84 24.5244C137.034 24.5531 137.206 24.5674 137.354 24.5674C137.818 24.5674 138.161 24.4899 138.378 24.3379C138.595 24.183 138.781 23.9962 138.93 23.7725C138.976 23.697 139.144 23.3152 139.43 22.625C139.718 21.9368 139.927 21.4235 140.056 21.0879L134.527 5.64551H137.374L141.38 17.8662ZM24.4453 5.20996C26.3578 5.20999 27.9762 5.85262 29.2969 7.14062L29.2998 7.14258C30.6205 8.43062 31.2803 10.3247 31.2803 12.8262C31.2802 15.3273 30.6974 17.2378 29.5342 18.8154C28.3707 20.3932 26.5632 21.1797 24.1133 21.1797C22.0723 21.1796 20.4487 20.482 19.248 19.0879C18.0475 17.6938 17.4473 15.8209 17.4473 13.4688C17.4473 10.9502 18.0785 8.94475 19.3447 7.4502C20.6112 5.95848 22.3127 5.20996 24.4453 5.20996ZM61.1768 5.30664C62.2316 5.30664 63.2531 5.55651 64.2422 6.05566L64.2451 6.05859C65.2341 6.55772 65.9885 7.20637 66.5059 7.99805C67.0061 8.75533 67.3381 9.63582 67.5039 10.6455C67.6526 11.3368 67.7266 12.4385 67.7266 13.9502H56.8516C56.8973 15.4762 57.2549 16.7013 57.918 17.6221C58.5841 18.5429 59.6136 19.0049 61.0059 19.0049C62.3065 19.0048 63.3474 18.5693 64.1221 17.6973C64.5566 17.1895 64.862 16.604 65.0449 15.9385H67.5146C67.4489 16.4892 67.2321 17.1033 66.8662 17.7803C66.4974 18.4573 66.0884 19.0111 65.6367 19.4414C64.8793 20.1871 63.9418 20.6921 62.8242 20.9531C62.2239 21.1023 61.5457 21.1768 60.7881 21.1768C58.9386 21.1767 57.3723 20.4965 56.0859 19.1396C54.7996 17.78 54.1593 15.8784 54.1592 13.4316C54.1592 10.9847 54.8046 9.06471 56.0996 7.56152C57.3945 6.05844 59.0872 5.30675 61.1768 5.30664ZM86.5977 5.30664C87.6524 5.30671 88.6731 5.55658 89.6621 6.05566L89.665 6.05859C90.654 6.55773 91.4084 7.20636 91.9258 7.99805C92.426 8.75533 92.758 9.63581 92.9238 10.6455C93.0725 11.3368 93.1465 12.4385 93.1465 13.9502H82.2715C82.3172 15.4761 82.6748 16.7013 83.3379 17.6221C84.004 18.5429 85.0336 19.0049 86.4258 19.0049C87.7265 19.0049 88.7673 18.5693 89.542 17.6973C89.9765 17.1895 90.2819 16.604 90.4648 15.9385H92.9355C92.8698 16.4893 92.6521 17.1033 92.2861 17.7803C91.9174 18.4572 91.5083 19.0111 91.0566 19.4414C90.2992 20.1871 89.3617 20.6921 88.2441 20.9531C87.6438 21.1023 86.9656 21.1768 86.208 21.1768C84.3586 21.1767 82.7922 20.4964 81.5059 19.1396C80.2196 17.78 79.5792 15.8784 79.5791 13.4316C79.5791 10.9846 80.2255 9.06472 81.5205 7.56152C82.8155 6.0586 84.5081 5.30664 86.5977 5.30664ZM108.473 20.6455H106.211V18.5576C105.628 19.4812 104.936 20.1494 104.139 20.5596C103.341 20.9698 102.429 21.1768 101.399 21.1768C99.7416 21.1766 98.3037 20.4738 97.0889 19.0684C95.8739 17.6627 95.2676 15.7921 95.2676 13.457C95.2676 11.2712 95.8225 9.37802 96.9287 7.77734C98.0378 6.17671 99.6186 5.37607 101.677 5.37598C102.817 5.37598 103.773 5.61968 104.542 6.10449V6.10742C104.988 6.38858 105.491 6.8793 106.057 7.5791V0H108.473V20.6455ZM122.403 7.4668C122.955 6.74694 123.613 6.19891 124.379 5.82031C125.145 5.44182 125.977 5.25295 126.874 5.25293C128.744 5.25293 130.259 5.89543 131.423 7.17773C132.586 8.46289 133.166 10.3562 133.166 12.8574C133.166 15.2297 132.592 17.2004 131.442 18.7695C130.293 20.3387 128.7 21.1221 126.665 21.1221C125.525 21.122 124.564 20.8466 123.778 20.2959C123.312 19.9689 122.812 19.4466 122.28 18.7266V20.6455H119.962V0H122.403V7.4668ZM77.6807 5.32422C77.7922 5.33282 77.9842 5.35315 78.2529 5.38184V8.04395C78.1043 8.01526 77.9666 7.9978 77.8408 7.98633C77.7152 7.97773 77.5781 7.97169 77.4297 7.97168C76.1633 7.97168 75.1911 8.37969 74.5107 9.19727C73.8304 10.0148 73.4932 10.9554 73.4932 12.0195V20.6484H70.9795V5.64551H73.3672V8.23633C73.5616 7.73149 74.0415 7.11735 74.8047 6.39453C75.5679 5.67166 76.4486 5.30961 77.4434 5.30957C77.4891 5.30957 77.5692 5.31562 77.6807 5.32422ZM9.17676 0.0693359C10.9891 0.069369 12.4554 0.585468 13.5703 1.61816C14.6852 2.65088 15.2431 4.09933 15.2432 5.9668C15.2432 7.57324 14.7458 8.97064 13.751 10.1611C12.7562 11.3516 11.2322 11.9482 9.18262 11.9482H2.77832V20.6455H0V0.0693359H9.17676ZM38.4072 17.4678L41.3262 5.64551H44.1445L47.0752 17.3984L50.1309 5.64551H52.6436L48.3018 20.6455H45.6914L42.6494 9.0332L39.7051 20.6455H37.0947L32.7812 5.64551H35.5312L38.4072 17.4678ZM24.377 7.41016C22.8591 7.41016 21.7553 7.99785 21.0635 9.17383C20.3717 10.35 20.0283 11.7677 20.0283 13.4287C20.0284 15.0895 20.3746 16.3518 21.0635 17.416C21.7524 18.4801 22.8471 19.0107 24.3477 19.0107C25.9943 19.0107 27.1236 18.3794 27.7354 17.1143L27.7383 17.1113C28.35 15.8463 28.6562 14.4406 28.6562 12.8945C28.6562 11.495 28.4361 10.3592 27.9932 9.48145C27.2928 8.10171 26.0891 7.41026 24.377 7.41016ZM102.157 7.5791C100.897 7.57915 99.8761 8.0638 99.0957 9.03613C98.3124 10.0086 97.9238 11.4375 97.9238 13.3223C97.9238 14.9287 98.261 16.274 98.9385 17.3555H98.9355C99.6101 18.4397 100.694 18.9794 102.186 18.9795C103.343 18.9795 104.296 18.4775 105.039 17.4736C105.785 16.4697 106.157 15.0293 106.157 13.1533C106.157 11.2772 105.774 9.85371 105.005 8.94434C104.236 8.035 103.286 7.5791 102.157 7.5791ZM126.577 7.50977C125.428 7.50977 124.421 7.93505 123.558 8.78418C122.695 9.63331 122.263 11.036 122.263 12.9863C122.263 14.3977 122.44 15.5401 122.795 16.418C123.458 18.0699 124.696 18.8963 126.505 18.8965C127.869 18.8965 128.89 18.354 129.564 17.2725H129.567C130.245 16.1881 130.582 14.7591 130.582 12.9863C130.582 11.4089 130.245 10.1009 129.567 9.06543C128.89 8.02991 127.895 7.50985 126.577 7.50977ZM61.0195 7.50781C59.8764 7.50793 58.9162 7.92627 58.1416 8.76074C57.3669 9.59553 56.9549 10.6602 56.9092 11.9482H65.1455C65.0426 10.8554 64.8081 9.98314 64.4395 9.3291C63.7562 8.11564 62.6147 7.50781 61.0195 7.50781ZM86.4404 7.50781C85.2971 7.50781 84.3362 7.92614 83.5615 8.76074C82.7868 9.59553 82.3748 10.6602 82.3291 11.9482H90.5654C90.4625 10.8554 90.2281 9.98314 89.8594 9.3291C89.1762 8.11576 88.0354 7.50792 86.4404 7.50781ZM2.77832 9.5957H8.26758C9.50536 9.59569 10.5084 9.32853 11.2803 8.79785C12.0521 8.26431 12.4384 7.32677 12.4385 5.98438C12.4385 4.47257 11.8836 3.4455 10.7744 2.90332V2.90039C10.1655 2.6107 9.32807 2.4668 8.26758 2.4668H2.77832V9.5957Z" fill="var(--fill-0, #555555)"/>
</svg>
