<svg preserveAspectRatio="xMidYMid meet" width="184.46" height="62.12" overflow="visible" style="display: block;" viewBox="0 0 184.46 62.12" fill="none" xmlns="http://www.w3.org/2000/svg">
<g id="Group 26">
<g id="synths">
<path id="Vector" d="M148.203 50.12C142.003 50.12 137.563 48.1 134.883 44.06L136.503 42.86C137.783 44.78 139.383 46.18 141.303 47.06C143.223 47.9 145.563 48.32 148.323 48.32C151.643 48.32 154.283 47.64 156.243 46.28C158.243 44.92 159.243 42.9 159.243 40.22C159.243 38.34 158.643 37 157.443 36.2C156.243 35.36 154.583 34.84 152.463 34.64L147.783 34.16C146.583 34.04 145.463 33.84 144.423 33.56C143.383 33.24 142.463 32.8 141.663 32.24C140.903 31.68 140.303 30.96 139.863 30.08C139.423 29.2 139.203 28.12 139.203 26.84C139.203 25.24 139.523 23.86 140.163 22.7C140.803 21.54 141.663 20.6 142.743 19.88C143.863 19.12 145.143 18.58 146.583 18.26C148.063 17.9 149.623 17.72 151.263 17.72C152.823 17.72 154.203 17.86 155.403 18.14C156.643 18.38 157.743 18.72 158.703 19.16C159.663 19.6 160.483 20.12 161.163 20.72C161.883 21.32 162.503 21.94 163.023 22.58L161.463 23.9C161.063 23.34 160.583 22.8 160.023 22.28C159.463 21.72 158.763 21.24 157.923 20.84C157.083 20.44 156.103 20.12 154.983 19.88C153.863 19.64 152.563 19.52 151.083 19.52C148.043 19.52 145.643 20.12 143.883 21.32C142.123 22.52 141.243 24.32 141.243 26.72C141.243 28.64 141.843 30 143.043 30.8C144.243 31.6 145.923 32.1 148.083 32.3L152.703 32.78C153.863 32.9 154.963 33.1 156.003 33.38C157.043 33.66 157.943 34.08 158.703 34.64C159.503 35.2 160.123 35.92 160.563 36.8C161.043 37.68 161.283 38.76 161.283 40.04C161.283 41.72 160.943 43.2 160.263 44.48C159.583 45.72 158.663 46.76 157.503 47.6C156.343 48.44 154.963 49.06 153.363 49.46C151.763 49.9 150.043 50.12 148.203 50.12Z" fill="var(--fill-0, #A1A7AF)"/>
<path id="Vector_2" d="M116.606 5H118.706L115.286 25.4H115.526C116.686 23 118.106 21.12 119.786 19.76C121.466 18.4 123.626 17.72 126.266 17.72C128.906 17.72 130.946 18.48 132.386 20C133.826 21.48 134.546 23.58 134.546 26.3C134.546 26.86 134.506 27.44 134.426 28.04C134.386 28.64 134.326 29.24 134.246 29.84L130.946 49.4H128.906L132.146 30.02C132.226 29.46 132.286 28.88 132.326 28.28C132.406 27.68 132.446 27.12 132.446 26.6C132.446 21.92 130.206 19.58 125.726 19.58C124.326 19.58 122.966 19.88 121.646 20.48C120.326 21.04 119.126 22 118.046 23.36C117.766 23.72 117.446 24.16 117.086 24.68C116.726 25.16 116.366 25.74 116.006 26.42C115.646 27.06 115.306 27.78 114.986 28.58C114.706 29.34 114.486 30.16 114.326 31.04L111.266 49.4H109.226L116.606 5Z" fill="var(--fill-0, #A1A7AF)"/>
<path id="Vector_3" d="M90.5297 50.12C89.9297 50.12 89.4497 49.96 89.0897 49.64C88.7697 49.32 88.6097 48.92 88.6097 48.44C88.6097 48.12 88.6097 47.8 88.6097 47.48C88.6497 47.16 88.7297 46.68 88.8497 46.04L93.2897 20.24H82.0097L82.3097 18.44H91.6697C92.9897 18.44 93.7697 17.78 94.0097 16.46L95.4497 7.52H97.4897L95.6897 18.44H110.81L110.51 20.24H95.3297L90.6497 47.84L91.2497 48.14L107.27 38.12L108.29 39.56L94.9697 47.9C93.8897 48.62 93.0297 49.16 92.3897 49.52C91.7497 49.92 91.1297 50.12 90.5297 50.12Z" fill="var(--fill-0, #A1A7AF)"/>
<path id="Vector_4" d="M55.2731 49.4L60.4331 18.44H62.4731L61.3331 25.4H61.5732C62.7332 23 64.1531 21.12 65.8331 19.76C67.5131 18.4 69.6731 17.72 72.3131 17.72C74.9531 17.72 76.9932 18.48 78.4332 20C79.8732 21.48 80.5931 23.58 80.5931 26.3C80.5931 26.86 80.5532 27.44 80.4732 28.04C80.4332 28.64 80.3732 29.24 80.2932 29.84L76.9931 49.4H74.9531L78.1931 30.02C78.2731 29.46 78.3331 28.88 78.3731 28.28C78.4531 27.68 78.4931 27.12 78.4931 26.6C78.4931 21.92 76.2531 19.58 71.7731 19.58C70.3731 19.58 69.0131 19.88 67.6931 20.48C66.3731 21.04 65.1731 22 64.0931 23.36C63.8131 23.72 63.4931 24.16 63.1331 24.68C62.7731 25.16 62.4131 25.74 62.0531 26.42C61.6931 27.06 61.3531 27.78 61.0331 28.58C60.7531 29.34 60.5331 30.16 60.3731 31.04L57.3131 49.4H55.2731Z" fill="var(--fill-0, #A1A7AF)"/>
<path id="Vector_5" d="M35.4966 62.12C33.1766 62.12 31.2166 61.76 29.6166 61.04C28.0566 60.32 26.7566 59.32 25.7166 58.04L27.2166 56.66C28.0566 57.78 29.1366 58.66 30.4566 59.3C31.8166 59.94 33.5166 60.26 35.5566 60.26C38.7566 60.26 41.3566 59.44 43.3566 57.8C45.3966 56.16 46.7166 53.48 47.3166 49.76L48.5766 42.26H48.3966C47.2366 44.62 45.7966 46.48 44.0766 47.84C42.3966 49.2 40.2566 49.88 37.6566 49.88C34.9766 49.88 32.8966 49.16 31.4166 47.72C29.9366 46.24 29.1966 44.14 29.1966 41.42C29.1966 40.3 29.3166 39.1 29.5566 37.82L32.8566 18.44H34.9566L31.7166 37.64C31.6366 38.2 31.5566 38.78 31.4766 39.38C31.3966 39.98 31.3566 40.54 31.3566 41.06C31.3566 43.38 31.9366 45.14 33.0966 46.34C34.2566 47.5 35.9366 48.08 38.1366 48.08C39.5366 48.08 40.8966 47.78 42.2166 47.18C43.5366 46.58 44.7366 45.62 45.8166 44.3C46.0966 43.94 46.4166 43.52 46.7766 43.04C47.1366 42.52 47.4966 41.94 47.8566 41.3C48.2166 40.66 48.5366 39.96 48.8166 39.2C49.0966 38.4 49.3166 37.56 49.4766 36.68L52.5366 18.44H54.5766L49.2966 50.24C48.6166 54.36 47.0766 57.36 44.6766 59.24C42.3166 61.16 39.2566 62.12 35.4966 62.12Z" fill="var(--fill-0, #A1A7AF)"/>
<path id="Vector_6" d="M13.32 50.12C7.12002 50.12 2.68002 48.1 2.28882e-05 44.06L1.62002 42.86C2.90002 44.78 4.50002 46.18 6.42002 47.06C8.34002 47.9 10.68 48.32 13.44 48.32C16.76 48.32 19.4 47.64 21.36 46.28C23.36 44.92 24.36 42.9 24.36 40.22C24.36 38.34 23.76 37 22.56 36.2C21.36 35.36 19.7 34.84 17.58 34.64L12.9 34.16C11.7 34.04 10.58 33.84 9.54002 33.56C8.50002 33.24 7.58002 32.8 6.78002 32.24C6.02002 31.68 5.42002 30.96 4.98002 30.08C4.54002 29.2 4.32002 28.12 4.32002 26.84C4.32002 25.24 4.64002 23.86 5.28002 22.7C5.92002 21.54 6.78002 20.6 7.86002 19.88C8.98002 19.12 10.26 18.58 11.7 18.26C13.18 17.9 14.74 17.72 16.38 17.72C17.94 17.72 19.32 17.86 20.52 18.14C21.76 18.38 22.86 18.72 23.82 19.16C24.78 19.6 25.6 20.12 26.28 20.72C27 21.32 27.62 21.94 28.14 22.58L26.58 23.9C26.18 23.34 25.7 22.8 25.14 22.28C24.58 21.72 23.88 21.24 23.04 20.84C22.2 20.44 21.22 20.12 20.1 19.88C18.98 19.64 17.68 19.52 16.2 19.52C13.16 19.52 10.76 20.12 9.00002 21.32C7.24002 22.52 6.36002 24.32 6.36002 26.72C6.36002 28.64 6.96002 30 8.16002 30.8C9.36002 31.6 11.04 32.1 13.2 32.3L17.82 32.78C18.98 32.9 20.08 33.1 21.12 33.38C22.16 33.66 23.06 34.08 23.82 34.64C24.62 35.2 25.24 35.92 25.68 36.8C26.16 37.68 26.4 38.76 26.4 40.04C26.4 41.72 26.06 43.2 25.38 44.48C24.7 45.72 23.78 46.76 22.62 47.6C21.46 48.44 20.08 49.06 18.48 49.46C16.88 49.9 15.16 50.12 13.32 50.12Z" fill="var(--fill-0, #A1A7AF)"/>
</g>
<path id="Union" d="M181.155 34.2252C181.155 35.3288 180.945 36.2253 180.524 36.9146C180.104 37.5976 179.449 37.94 178.56 37.94L173.148 37.94C172.985 37.9401 172.854 37.9739 172.755 38.0406C172.656 38.1075 172.606 38.2499 172.606 38.4654C172.606 38.5355 172.611 38.6146 172.619 38.7027C172.628 38.7908 172.641 38.8843 172.658 38.983L171.492 38.983C171.422 38.7379 171.379 38.551 171.36 38.4225C171.342 38.2939 171.333 38.1181 171.333 37.8961C171.333 37.3524 171.527 36.9579 171.912 36.7115C172.117 36.583 172.406 36.4931 172.78 36.44C172.36 36.1182 171.994 35.6564 171.684 35.0553C171.373 34.453 171.22 33.7885 171.22 33.0641C171.22 32.1933 171.484 31.4815 172.012 30.9293C172.54 30.377 173.202 30.1012 173.996 30.1012C174.866 30.1012 175.541 30.3729 176.02 30.9166C176.499 31.4604 176.793 32.1735 176.904 33.0572L177.22 35.5748L177.218 35.5709C177.265 35.9331 177.417 36.1763 177.674 36.2984C177.815 36.3685 178.017 36.4039 178.281 36.4039C178.821 36.4039 179.213 36.2129 179.456 35.8307C179.699 35.4483 179.821 34.9007 179.821 34.1891C179.821 33.3661 179.598 32.7832 179.152 32.4391C178.905 32.2468 178.538 32.1215 178.051 32.0631L178.051 30.5895C179.212 30.6181 180.019 30.9942 180.474 31.7154C180.928 32.4366 181.155 33.2736 181.155 34.2252ZM179.785 42.2887C180.235 42.6349 180.579 43.0488 180.815 43.5299C181.052 44.0111 181.17 44.5343 181.17 45.0973C181.17 46.2707 180.768 47.223 179.965 47.9537C179.161 48.6845 177.975 49.0504 176.408 49.0504C174.924 49.0503 173.69 48.6895 172.708 47.9674C171.726 47.2451 171.235 46.2442 171.234 44.9654C171.234 44.2495 171.407 43.6448 171.752 43.152C171.957 42.8588 172.284 42.5441 172.734 42.2096L171.533 42.2096L171.533 40.7535L184.46 40.7535L184.46 42.2887L179.785 42.2887ZM173.069 22.1451L173.069 28.609L171.534 28.609L171.534 20.4L184.416 20.4L184.416 22.1451L173.069 22.1451ZM176.307 36.36C176.184 36.1678 176.081 35.9193 175.999 35.6168C175.917 35.313 175.858 35.0153 175.823 34.7242L175.701 33.7711C175.626 33.1996 175.505 32.7689 175.342 32.4811C175.068 31.9927 174.63 31.7496 174.029 31.7496C173.575 31.7496 173.216 31.9161 172.953 32.2496L172.953 32.2477C172.691 32.5812 172.56 32.9755 172.56 33.4322C172.56 33.9876 172.687 34.5252 172.944 35.0455C173.37 35.9228 174.069 36.3599 175.037 36.36L176.307 36.36ZM179.759 44.9098C179.759 44.1887 179.493 43.557 178.961 43.0143C178.429 42.4715 177.553 42.2008 176.33 42.2008C175.448 42.2008 174.732 42.3118 174.182 42.5348C173.147 42.9511 172.629 43.7292 172.629 44.8668C172.629 45.7225 172.968 46.3639 173.647 46.7887C174.324 47.2135 175.22 47.4273 176.33 47.4273C177.318 47.4273 178.137 47.2146 178.786 46.7887C179.435 46.3638 179.759 45.737 179.759 44.9098Z" fill="var(--fill-0, #A1A7AF)"/>
<circle id="Ellipse 6" cx="177.46" cy="5" r="5" fill="var(--fill-0, #FFD35C)"/>
</g>
</svg>
