<svg preserveAspectRatio="none" width="100%" height="100%" overflow="visible" style="display: block;" viewBox="0 0 51.56 37.16" fill="none" xmlns="http://www.w3.org/2000/svg">
<g id="Group">
<path id="Vector" d="M4.95 9.89V27.4C4.95 28.81 5.08999 29.8 5.50999 30.65C6.21999 32.2 7.77 33.05 9.75 33.05C12.72 33.05 14.83 31.64 15.82 28.95C16.38 27.54 16.67 25.42 16.67 22.88V9.89H21.05V36.3H16.81V32.35C16.25 33.34 15.54 34.19 14.69 34.89C13 36.3 11.02 37.01 8.62 37.01C4.95 37.01 2.41 35.74 1.13 33.2C0.420005 31.79 0 30.09 0 27.83V9.89H4.94H4.95Z" fill="#F5F5F5"/>
<path id="Vector_2" d="M28.25 0H32.49V13.14C33.48 11.87 34.61 10.88 36.02 10.32C37.43 9.61 38.84 9.33 40.4 9.33C43.65 9.33 46.33 10.46 48.45 12.72C50.57 14.98 51.56 18.37 51.56 22.75C51.56 27.13 50.57 30.38 48.45 33.06C46.47 35.88 43.65 37.16 39.98 37.16C36.31 37.16 36.31 36.74 34.9 35.75C34.05 35.19 33.21 34.2 32.22 32.93V36.32H28.12V0H28.26H28.25ZM45.2 30.37C46.33 28.53 47.04 25.99 47.04 22.88C47.04 19.77 46.48 17.8 45.2 15.96C43.92 14.12 42.23 13.28 39.97 13.28C37.71 13.28 36.16 13.99 34.6 15.54C33.04 17.09 32.34 19.49 32.34 22.88C32.34 26.27 32.62 27.4 33.33 28.95C34.46 31.92 36.72 33.33 39.83 33.33C42.94 33.33 44.07 32.34 45.2 30.51V30.37Z" fill="#F5F5F5"/>
</g>
</svg>
