<svg width="292" height="80" viewBox="0 0 292 80" fill="none" xmlns="http://www.w3.org/2000/svg">
<g clip-path="url(#clip0_3120_225)">
<path d="M132.232 60.608C129.944 60.608 127.992 60.272 126.375 59.584C124.759 58.896 123.431 57.936 122.407 56.672L124.695 54.496C125.463 55.52 126.471 56.32 127.72 56.896C128.968 57.472 130.552 57.76 132.456 57.76C135.304 57.76 137.624 57.024 139.384 55.568C141.16 54.096 142.296 51.68 142.84 48.288L144.04 41.216H143.864C142.76 43.504 141.416 45.312 139.816 46.672C138.216 48.016 136.2 48.704 133.768 48.704C131.336 48.704 129.304 47.968 127.912 46.512C126.519 45.04 125.831 43.008 125.831 40.384C125.831 39.856 125.863 39.312 125.911 38.752C125.959 38.192 126.039 37.584 126.103 36.896L129.064 19.088H132.264L129.352 36.608C129.24 37.216 129.16 37.792 129.128 38.32C129.096 38.848 129.064 39.392 129.064 39.92C129.064 41.792 129.544 43.248 130.488 44.288C131.432 45.328 132.84 45.856 134.712 45.856C137.416 45.856 139.672 44.736 141.512 42.496C141.736 42.224 142.008 41.872 142.344 41.44C142.664 41.008 143 40.48 143.336 39.872C143.672 39.264 143.992 38.592 144.28 37.872C144.568 37.152 144.776 36.368 144.936 35.536L147.673 19.104H150.873L145.913 48.96C145.224 53.072 143.672 56.048 141.256 57.888C138.84 59.728 135.816 60.656 132.216 60.656L132.232 60.608Z" fill="#CCCCCC"/>
<path d="M150.904 48.512L155.817 19.056H159.017L157.881 25.856H158.105C159.209 23.536 160.553 21.712 162.137 20.384C163.721 19.056 165.721 18.384 168.153 18.384C170.585 18.384 172.617 19.12 174.01 20.576C175.402 22.048 176.09 24.08 176.09 26.704C176.09 27.232 176.058 27.824 176.01 28.448C175.946 29.072 175.866 29.696 175.754 30.304L172.729 48.512H169.529L172.489 30.64C172.601 30 172.681 29.392 172.713 28.816C172.746 28.24 172.778 27.744 172.778 27.328C172.778 25.344 172.313 23.84 171.385 22.784C170.457 21.744 169.049 21.216 167.193 21.216C164.569 21.216 162.297 22.336 160.409 24.576C159.833 25.264 159.193 26.176 158.473 27.344C157.753 28.512 157.241 29.92 156.937 31.6L154.136 48.496H150.936L150.904 48.512Z" fill="#CCCCCC"/>
<path d="M186.235 49.2C184.251 49.2 183.259 48.208 183.259 46.24C183.259 45.712 183.323 44.976 183.435 44.064L187.259 21.808H177.61L178.074 19.072H185.547C186.347 19.072 186.955 18.896 187.371 18.56C187.787 18.224 188.075 17.632 188.235 16.784L189.611 8.672H192.635L190.923 19.056H204.22L203.756 21.792H190.459L186.411 45.872L187.211 46.336L201.308 37.36L202.908 39.376L193.259 45.712C191.435 46.976 190.011 47.856 189.003 48.4C187.995 48.944 187.067 49.2 186.235 49.2Z" fill="#CCCCCC"/>
<path d="M210.492 6.27198H213.692L210.38 25.856H210.604C211.708 23.536 213.052 21.712 214.62 20.384C216.204 19.056 218.204 18.384 220.636 18.384C223.068 18.384 225.101 19.12 226.493 20.576C227.885 22.048 228.573 24.08 228.573 26.704C228.573 27.232 228.541 27.824 228.493 28.448C228.429 29.072 228.349 29.696 228.237 30.304L225.213 48.512H222.012L224.973 30.64C225.085 30 225.165 29.392 225.197 28.816C225.229 28.24 225.261 27.744 225.261 27.328C225.261 25.344 224.796 23.84 223.868 22.784C222.94 21.744 221.532 21.216 219.676 21.216C217.052 21.216 214.78 22.336 212.876 24.576C212.3 25.264 211.66 26.176 210.94 27.344C210.22 28.512 209.708 29.92 209.404 31.6L206.603 48.496H203.403L210.476 6.25598L210.492 6.27198Z" fill="#CCCCCC"/>
<path d="M105.174 59.9679C101.638 59.9679 98.7738 59.3279 96.5817 58.0639C94.3895 56.7839 92.7095 55.1359 91.5254 53.1199L94.0375 51.1199C95.2536 53.0239 96.7417 54.4799 98.4858 55.4879C100.23 56.4959 102.518 57.0079 105.334 57.0079C108.678 57.0079 111.334 56.1919 113.271 54.5599C115.207 52.9279 116.183 50.6719 116.183 47.7919C116.183 45.8879 115.671 44.3999 114.647 43.2959C113.623 42.1919 111.863 41.3759 109.398 40.8479L104.886 39.7599C101.846 39.0719 99.6218 37.9359 98.2298 36.3679C96.8377 34.7839 96.1496 32.7359 96.1496 30.2399C96.1496 28.4159 96.4857 26.7999 97.1417 25.3919C97.8137 23.9839 98.7418 22.7839 99.9418 21.7919C101.142 20.7999 102.582 20.0479 104.278 19.5359C105.974 19.0239 107.83 18.7679 109.846 18.7679C113.351 18.7679 116.103 19.3599 118.119 20.5439C120.135 21.7279 121.655 23.2159 122.679 24.9919L120.167 26.8159C119.063 25.0719 117.687 23.7759 116.055 22.9599C114.423 22.1439 112.295 21.7279 109.654 21.7279C106.534 21.7279 104.07 22.4479 102.262 23.8879C100.454 25.3279 99.5578 27.3919 99.5578 30.0799C99.5578 32.0479 100.118 33.5519 101.238 34.5919C102.358 35.6319 104.07 36.4159 106.342 36.9439L110.79 37.9679C113.943 38.7359 116.199 39.9039 117.559 41.4879C118.919 43.0719 119.591 45.0719 119.591 47.5199C119.591 49.4239 119.255 51.1359 118.567 52.6559C117.879 54.1759 116.919 55.4879 115.655 56.5759C114.391 57.6639 112.887 58.4959 111.11 59.0879C109.334 59.6799 107.35 59.9679 105.142 59.9679H105.174Z" fill="#CCCCCC"/>
<path d="M239.326 32.064V51.872C239.326 53.392 239.566 54.64 240.03 55.6C240.894 57.392 242.51 58.272 244.894 58.272C248.302 58.272 250.607 56.72 251.839 53.584C252.511 51.92 252.847 49.616 252.847 46.704V32.048H257.871V61.888H253.135L253.199 57.488C252.559 58.624 251.759 59.584 250.815 60.352C248.942 61.92 246.654 62.688 243.982 62.688C239.806 62.688 236.958 61.264 235.454 58.416C234.638 56.896 234.222 54.864 234.222 52.32V32.032H239.342L239.326 32.064Z" fill="#CCCCCC"/>
<path d="M265.632 20.832H270.512V35.68C271.616 34.256 272.928 33.152 274.448 32.4C275.984 31.648 277.633 31.264 279.425 31.264C283.153 31.264 286.177 32.544 288.497 35.088C290.817 37.648 291.985 41.408 291.985 46.384C291.985 51.104 290.833 55.024 288.545 58.144C286.257 61.264 283.073 62.832 279.009 62.832C276.736 62.832 274.816 62.288 273.248 61.184C272.32 60.528 271.312 59.488 270.256 58.064V61.888H265.632V20.832ZM284.817 55.184C286.161 53.024 286.849 50.192 286.849 46.656C286.849 43.52 286.177 40.912 284.817 38.848C283.457 36.784 281.473 35.76 278.849 35.76C276.56 35.76 274.544 36.608 272.816 38.304C271.088 40 270.224 42.784 270.224 46.656C270.224 49.456 270.576 51.744 271.28 53.488C272.608 56.768 275.072 58.416 278.689 58.416C281.409 58.416 283.441 57.344 284.801 55.184H284.817Z" fill="#CCCCCC"/>
<path d="M228.573 57.104H202.315V61.904H228.573V57.104Z" fill="#EDFF87"/>
<path d="M42.4018 20H37.6016V40H42.4018V20Z" fill="#CCCCCC"/>
<path d="M42.4018 40H37.6016V60H42.4018V40Z" fill="#CCCCCC"/>
<path d="M27.5623 24.16L24.168 27.5541L38.3109 41.6962L41.7052 38.3021L27.5623 24.16Z" fill="#CCCCCC"/>
<path d="M41.6941 38.3039L38.2998 41.698L52.4427 55.8401L55.837 52.446L41.6941 38.3039Z" fill="#CCCCCC"/>
<path d="M40.0021 37.6H20.001V42.4H40.0021V37.6Z" fill="#CCCCCC"/>
<path d="M60.003 37.6H40.002V42.4H60.003V37.6Z" fill="#CCCCCC"/>
<path d="M38.3128 38.3053L24.1699 52.4474L27.5642 55.8415L41.7071 41.6994L38.3128 38.3053Z" fill="#CCCCCC"/>
<path d="M52.4417 24.1585L38.2988 38.3007L41.6931 41.6948L55.836 27.5526L52.4417 24.1585Z" fill="#CCCCCC"/>
<path d="M42.4028 60H37.6025V80H42.4028V60Z" fill="#CCCCCC"/>
<path d="M42.4028 0H37.6025V20H42.4028V0Z" fill="#CCCCCC"/>
<path d="M55.8416 52.4479L52.4473 55.842L66.5902 69.9842L69.9845 66.5901L55.8416 52.4479Z" fill="#CCCCCC"/>
<path d="M13.4158 10.0159L10.0215 13.41L24.1644 27.5522L27.5587 24.1581L13.4158 10.0159Z" fill="#CCCCCC"/>
<path d="M80.004 37.6H60.0029V42.4H80.004V37.6Z" fill="#CCCCCC"/>
<path d="M20.0011 37.6H0V42.4H20.0011V37.6Z" fill="#CCCCCC"/>
<path d="M20.6095 45.4462L2.13086 53.0999L3.96784 57.5345L22.4464 49.8808L20.6095 45.4462Z" fill="#CCCCCC"/>
<path d="M30.1222 57.5705L22.4648 76.0468L26.8994 77.8844L34.5567 59.4082L30.1222 57.5705Z" fill="#CCCCCC"/>
<path d="M59.3948 34.56L63.827 32.72L77.8758 26.912L76.0357 22.48L57.5547 30.128L59.3948 34.56Z" fill="#CCCCCC"/>
<path d="M55.6829 71.6L53.8588 67.168L49.8746 57.552L45.4424 59.392L53.0908 77.872L57.523 76.032L55.6829 71.6Z" fill="#CCCCCC"/>
<path d="M32.722 16.1761L26.9137 2.12805L22.4814 3.96805L30.1299 22.4481L34.5621 20.6081L32.722 16.1761Z" fill="#CCCCCC"/>
<path d="M66.5886 10.0071L63.1943 13.4012L66.5886 16.7954L69.9829 13.4012L66.5886 10.0071Z" fill="#CCCCCC"/>
<path d="M59.7996 16.795L52.4453 24.1489L55.8396 27.543L63.1939 20.1891L59.7996 16.795Z" fill="#CCCCCC"/>
<path d="M20.775 55.8434L10.0264 66.5914L13.4207 69.9855L24.1693 59.2375L20.775 55.8434Z" fill="#CCCCCC"/>
<path d="M69.0919 49.4444L67.2549 53.879L76.0507 57.5222L77.8877 53.0876L69.0919 49.4444Z" fill="#CCCCCC"/>
<path d="M59.41 45.4363L57.5723 49.8706L62.8198 52.0452L64.6576 47.6109L59.41 45.4363Z" fill="#CCCCCC"/>
<path d="M13.5829 26.4644L11.7451 30.8987L20.6142 34.574L22.452 30.1397L13.5829 26.4644Z" fill="#CCCCCC"/>
<path d="M3.96568 22.474L2.12793 26.9083L7.30156 29.0523L9.13932 24.618L3.96568 22.474Z" fill="#CCCCCC"/>
<path d="M51.7147 18.0001L57.523 3.96805L53.0908 2.12805L45.4424 20.6081L49.8746 22.4481L51.7147 18.0001Z" fill="#CCCCCC"/>
</g>
<defs>
<clipPath id="clip0_3120_225">
<rect width="292" height="80" fill="white"/>
</clipPath>
</defs>
</svg>
