<svg preserveAspectRatio="none" width="100%" height="100%" overflow="visible" style="display: block;" viewBox="0 0 121.05 48.01" fill="none" xmlns="http://www.w3.org/2000/svg">
<g id="Group">
<path id="Vector" d="M35.95 48C33.93 48 32.21 47.7 30.78 47.09C29.35 46.49 28.18 45.63 27.28 44.52L29.3 42.6C29.97 43.51 30.86 44.21 31.97 44.72C33.08 45.23 34.47 45.48 36.15 45.48C38.67 45.48 40.71 44.83 42.28 43.54C43.84 42.25 44.86 40.1 45.33 37.11L46.39 30.86H46.24C45.26 32.88 44.07 34.48 42.66 35.67C41.25 36.86 39.47 37.46 37.32 37.46C35.17 37.46 33.38 36.81 32.15 35.52C30.92 34.23 30.31 32.42 30.31 30.1C30.31 29.63 30.33 29.15 30.39 28.66C30.45 28.17 30.5 27.63 30.57 27.02L33.19 11.29H36.01L33.44 26.77C33.34 27.31 33.27 27.81 33.24 28.28C33.21 28.75 33.19 29.22 33.19 29.69C33.19 31.34 33.61 32.62 34.45 33.55C35.29 34.47 36.53 34.94 38.18 34.94C40.57 34.94 42.57 33.95 44.18 31.97C44.38 31.74 44.62 31.42 44.91 31.04C45.2 30.65 45.49 30.19 45.79 29.65C46.09 29.11 46.37 28.52 46.62 27.89C46.87 27.25 47.07 26.56 47.2 25.82L49.62 11.3H52.44L48.05 37.67C47.44 41.3 46.07 43.93 43.94 45.56C41.8 47.19 39.14 48.01 35.95 48.01V48Z" fill="#F5F5F5"/>
<path id="Vector_2" d="M52.43 37.31L56.77 11.3H59.59L58.58 17.3H58.78C59.75 15.25 60.94 13.64 62.33 12.46C63.72 11.28 65.5 10.7 67.65 10.7C69.8 10.7 71.59 11.35 72.82 12.64C74.05 13.93 74.66 15.74 74.66 18.06C74.66 18.53 74.64 19.04 74.58 19.6C74.53 20.15 74.45 20.7 74.35 21.24L71.68 37.32H68.86L71.48 21.54C71.58 20.97 71.65 20.43 71.68 19.93C71.71 19.43 71.73 18.99 71.73 18.62C71.73 16.87 71.32 15.54 70.49 14.61C69.67 13.69 68.43 13.22 66.78 13.22C64.46 13.22 62.46 14.21 60.78 16.19C60.28 16.8 59.7 17.61 59.07 18.64C58.43 19.67 57.98 20.92 57.71 22.4L55.24 37.32H52.42L52.43 37.31Z" fill="#F5F5F5"/>
<path id="Vector_3" d="M83.64 37.91C81.89 37.91 81.02 37.04 81.02 35.29C81.02 34.82 81.07 34.18 81.17 33.37L84.55 13.71H76.03L76.43 11.29H83.03C83.74 11.29 84.27 11.14 84.64 10.84C85.01 10.54 85.26 10.02 85.4 9.28L86.61 2.12H89.28L87.77 11.3H99.52L99.12 13.72H87.37L83.79 34.99L84.5 35.39L96.95 27.46L98.36 29.24L89.84 34.84C88.23 35.95 86.97 36.74 86.08 37.21C85.19 37.68 84.37 37.92 83.64 37.92V37.91Z" fill="#F5F5F5"/>
<path id="Vector_4" d="M105.07 0H107.89L104.97 17.29H105.17C106.14 15.24 107.33 13.63 108.72 12.45C110.12 11.27 111.89 10.69 114.04 10.69C116.19 10.69 117.98 11.34 119.21 12.63C120.44 13.92 121.05 15.73 121.05 18.05C121.05 18.52 121.03 19.03 120.97 19.59C120.92 20.14 120.84 20.69 120.74 21.23L118.07 37.31H115.25L117.87 21.53C117.97 20.96 118.04 20.42 118.07 19.92C118.1 19.42 118.12 18.98 118.12 18.61C118.12 16.86 117.71 15.53 116.88 14.6C116.06 13.68 114.82 13.21 113.17 13.21C110.85 13.21 108.85 14.2 107.17 16.18C106.67 16.79 106.09 17.6 105.46 18.63C104.82 19.66 104.37 20.91 104.1 22.39L101.63 37.31H98.81L105.06 0H105.07Z" fill="#F5F5F5"/>
<path id="Vector_5" d="M12.05 47.43C8.92 47.43 6.4 46.87 4.46 45.74C2.53 44.61 1.04 43.16 0 41.38L2.22 39.62C3.3 41.3 4.61 42.59 6.15 43.48C7.7 44.37 9.71 44.82 12.2 44.82C15.16 44.82 17.49 44.1 19.21 42.66C20.93 41.22 21.78 39.23 21.78 36.68C21.78 35 21.33 33.68 20.42 32.71C19.51 31.74 17.97 31.02 15.78 30.55L11.8 29.59C9.11 28.99 7.15 27.98 5.93 26.59C4.7 25.19 4.09 23.39 4.09 21.17C4.09 19.56 4.38 18.13 4.97 16.88C5.56 15.64 6.38 14.58 7.44 13.7C8.5 12.82 9.78 12.16 11.27 11.71C12.77 11.26 14.4 11.03 16.19 11.03C19.28 11.03 21.72 11.55 23.5 12.59C25.28 13.63 26.63 14.94 27.53 16.52L25.31 18.13C24.33 16.59 23.13 15.45 21.68 14.73C20.23 14.01 18.35 13.65 16.03 13.65C13.27 13.65 11.1 14.29 9.5 15.56C7.9 16.83 7.11 18.65 7.11 21.02C7.11 22.76 7.61 24.09 8.6 25.01C9.59 25.93 11.1 26.62 13.11 27.09L17.04 28C19.83 28.67 21.82 29.71 23.01 31.11C24.2 32.51 24.8 34.28 24.8 36.43C24.8 38.11 24.5 39.63 23.89 40.97C23.28 42.32 22.43 43.47 21.32 44.43C20.21 45.39 18.87 46.13 17.31 46.65C15.75 47.17 13.99 47.43 12.04 47.43H12.05Z" fill="#F5F5F5"/>
</g>
</svg>
